<?xml version="1.0" encoding="UTF-8" standalone="no"?>
<!-- Generator: Adobe Illustrator 23.1.1, SVG Export Plug-In . SVG Version: 6.00 Build 0)  -->

<svg
   version="1.1"
   id="Layer_1"
   x="0px"
   y="0px"
   viewBox="0 0 872.11719 709.98181"
   xml:space="preserve"
   sodipodi:docname="rescatanimal-cat.svg"
   inkscape:version="1.2-dev (7f65670a75, 2021-12-08)"
   inkscape:export-filename="/home/ecarreras/Escriptori/rescat-cat.png"
   inkscape:export-xdpi="96"
   inkscape:export-ydpi="96"
   width="872.11719"
   height="709.98181"
   xmlns:inkscape="http://www.inkscape.org/namespaces/inkscape"
   xmlns:sodipodi="http://sodipodi.sourceforge.net/DTD/sodipodi-0.dtd"
   xmlns="http://www.w3.org/2000/svg"
   xmlns:svg="http://www.w3.org/2000/svg"><defs
   id="defs15095">
	
	
	
	
	
	
	
	
	
	
	
	
	
	
	
	
	
	
	
	
</defs><sodipodi:namedview
   id="namedview15093"
   pagecolor="#ffffff"
   bordercolor="#666666"
   borderopacity="1.0"
   inkscape:pageshadow="2"
   inkscape:pageopacity="0.0"
   inkscape:pagecheckerboard="0"
   inkscape:blackoutopacity="0.0"
   showgrid="false"
   inkscape:zoom="0.60104076"
   inkscape:cx="233.76118"
   inkscape:cy="215.4596"
   inkscape:window-width="1864"
   inkscape:window-height="1016"
   inkscape:window-x="56"
   inkscape:window-y="27"
   inkscape:window-maximized="1"
   inkscape:current-layer="Layer_1"
   fit-margin-top="25"
   lock-margins="true"
   fit-margin-left="25"
   fit-margin-right="25"
   fit-margin-bottom="25" />
<style
   type="text/css"
   id="style14799">
	.st0{fill:#F4F5F8;}
	.st1{fill:none;stroke:#E5E5E5;stroke-width:6;stroke-linecap:round;stroke-linejoin:round;stroke-miterlimit:10;}
	.st2{fill:#E5E5E5;}
	.st3{fill:none;stroke:#E5E5E5;stroke-width:4;stroke-linecap:round;stroke-linejoin:round;stroke-miterlimit:10;}
	.st4{fill:none;stroke:#E5E5E5;stroke-width:8;stroke-linecap:round;stroke-linejoin:round;stroke-miterlimit:10;}
	.st5{fill:none;stroke:#A83727;stroke-width:6;stroke-linecap:round;stroke-linejoin:round;stroke-miterlimit:10;}
	.st6{fill:#6DCCA3;}
	.st7{fill:none;stroke:#465172;stroke-width:6;stroke-linecap:round;stroke-linejoin:round;stroke-miterlimit:10;}
	.st8{fill:#2359B2;}
	.st9{opacity:0.67;fill:none;stroke:#1E2A54;stroke-width:6;stroke-linecap:round;stroke-linejoin:round;stroke-miterlimit:10;}
	.st10{fill:#D6D6D6;}
	.st11{fill:#F78A21;}
	.st12{opacity:0.26;fill:#9B463D;}
	.st13{fill:#A83727;}
	.st14{opacity:0.24;}
	.st15{fill:none;stroke:#A83727;stroke-width:2;stroke-linecap:round;stroke-linejoin:round;stroke-miterlimit:10;}
</style>
<g
   fill-rule="evenodd"
   id="g25971"
   transform="matrix(0.23401315,0,0,0.23401315,574.66943,-0.26098233)"
   style="fill:none;fill-opacity:1;stroke:#a83727;stroke-width:21.3663;stroke-miterlimit:4;stroke-dasharray:none;stroke-opacity:1"
   inkscape:export-filename="/home/ecarreras/Escriptori/rescat-dog.png"
   inkscape:export-xdpi="96"
   inkscape:export-ydpi="96"><path
     d="m 675.05,118.63 h 36.48 c 96.625,12.191 157.01,52.777 184.51,119.18 161.09,-8.8555 278.21,116.71 206.83,239.95 23.734,25.895 43.535,54.863 50.688,93.742 v 33.383 c -21.312,98.953 -113.02,165.82 -263.57,147.82 -38.734,50.809 -107.66,101.69 -214.92,95.352 -55.441,-3.3359 -94.008,-22.656 -127.78,-46.129 -35.566,19.512 -74.09,34.824 -129.74,34.992 -128.76,0.28906 -214.89,-74.879 -216.98,-177.98 C 117.791,634.819 61.728,589.795 46.458,512.76 v -33.383 c 16.848,-76.344 69.863,-124.3 158.14,-144.62 -5.3047,-128.79 171.27,-209.26 316.32,-152.52 34.539,-28.055 83.402,-58.656 154.13,-63.598 z"
     id="path25963"
     style="fill:none;fill-opacity:1;stroke:#a83727;stroke-width:21.3663;stroke-miterlimit:4;stroke-dasharray:none;stroke-opacity:1" /><path
     d="m 292.8,896.04 c 0,24.613 -19.953,44.57 -44.57,44.57 -24.613,0 -44.566,-19.957 -44.566,-44.57 0,-24.613 19.953,-44.566 44.566,-44.566 24.617,0 44.57,19.953 44.57,44.566"
     id="path25965"
     style="fill:none;fill-opacity:1;stroke:#a83727;stroke-width:21.3663;stroke-miterlimit:4;stroke-dasharray:none;stroke-opacity:1" /><path
     d="m 193.89,986.62 c 0,17.496 -14.184,31.68 -31.68,31.68 -17.496,0 -31.68,-14.184 -31.68,-31.68 0,-17.496 14.184,-31.68 31.68,-31.68 17.496,0 31.68,14.184 31.68,31.68"
     id="path25967"
     style="fill:none;fill-opacity:1;stroke:#a83727;stroke-width:21.3663;stroke-miterlimit:4;stroke-dasharray:none;stroke-opacity:1" /><path
     d="m 111.14,1061.5 c 0,12.578 -10.199,22.777 -22.777,22.777 -12.578,0 -22.773,-10.199 -22.773,-22.777 0,-12.578 10.195,-22.773 22.773,-22.773 12.578,0 22.777,10.195 22.777,22.773"
     id="path25969"
     style="fill:none;fill-opacity:1;stroke:#a83727;stroke-width:21.3663;stroke-miterlimit:4;stroke-dasharray:none;stroke-opacity:1" /></g><path
   d="m 691.52041,73.835658 c -4.47804,-0.0327 -8.97524,1.06657 -12.95117,3.69401 -27.61511,18.71284 -3.81474,61.897722 37.84172,91.227382 41.65597,-29.32717 65.45596,-72.512062 37.84164,-91.227382 -3.97534,-2.62711 -8.47307,-3.72674 -12.95116,-3.69401 -11.44299,0.0825 -22.75839,7.54828 -24.8938,15.74872 -2.13216,-8.20053 -13.44671,-15.66586 -24.89387,-15.74872 m 1.05982,8.30567 c 2.63389,-0.0282 5.18421,0.38876 7.12452,2.55593 l -5.05221,4.5201 c 0.28029,0.31301 -0.56258,-0.31301 -2.00017,-0.29845 -1.43627,0.0158 -3.30398,0.44637 -4.95736,1.38867 -3.30623,1.88264 -6.16062,5.32225 -4.97421,13.286762 l -6.70536,0.99987 c -1.50385,-10.093932 2.88383,-17.074582 8.32469,-20.176262 2.721,-1.54918 5.60483,-2.24874 8.23871,-2.28271"
   fill-rule="evenodd"
   id="path1326"
   style="fill:#cc0000;fill-opacity:1;stroke-width:0.082866"
   inkscape:export-filename="/home/ecarreras/Escriptori/rescat-cat.png"
   inkscape:export-xdpi="96"
   inkscape:export-ydpi="96" />
<g
   id="XMLID_278_"
   inkscape:export-filename="/home/ecarreras/Escriptori/rescat-cat.png"
   inkscape:export-xdpi="96"
   inkscape:export-ydpi="96"
   transform="translate(-98.5,-162.01821)">
	<polyline
   id="XMLID_285_"
   class="st1"
   points="243.9,634.7 243.9,665.6 182,665.6  " />
	<polyline
   id="XMLID_284_"
   class="st1"
   points="305.7,665.6 243.9,665.6 243.9,634.7  " />
	<rect
   id="XMLID_283_"
   x="212.89999"
   y="665.59998"
   class="st1"
   width="61.900002"
   height="30.9" />
	<polyline
   id="XMLID_282_"
   class="st1"
   points="261.4,727.5 243.9,727.5 243.9,696.5 305.7,696.5  " />
	<polyline
   id="XMLID_281_"
   class="st1"
   points="182,696.5 243.9,696.5 243.9,727.5 193.7,727.5  " />
	<polyline
   id="XMLID_280_"
   class="st1"
   points="160.9,665.6 212.9,665.6 212.9,696.5 182,696.5  " />
	<polyline
   id="XMLID_279_"
   class="st1"
   points="319.4,696.5 274.8,696.5 274.8,665.6 296.2,665.6  " />
</g>
<g
   id="XMLID_2_"
   inkscape:export-filename="/home/ecarreras/Escriptori/rescat-cat.png"
   inkscape:export-xdpi="96"
   inkscape:export-ydpi="96"
   transform="translate(-98.5,-162.01821)">
	<polyline
   id="XMLID_49_"
   class="st1"
   points="817.6,441.4 817.6,472.3 879.5,472.3  " />
	<polyline
   id="XMLID_38_"
   class="st1"
   points="755.8,472.3 817.6,472.3 817.6,441.4  " />
	
		<rect
   id="XMLID_37_"
   x="786.70001"
   y="472.29999"
   transform="rotate(180,817.6429,487.8145)"
   class="st1"
   width="61.900002"
   height="30.9" />
	<polyline
   id="XMLID_26_"
   class="st1"
   points="800.1,534.2 817.6,534.2 817.6,503.3 755.8,503.3  " />
	<polyline
   id="XMLID_8_"
   class="st1"
   points="879.5,503.3 817.6,503.3 817.6,534.2 867.8,534.2  " />
	<polyline
   id="XMLID_4_"
   class="st1"
   points="900.6,472.3 848.6,472.3 848.6,503.3 879.5,503.3  " />
	<polyline
   id="XMLID_3_"
   class="st1"
   points="742.1,503.3 786.7,503.3 786.7,472.3 765.3,472.3  " />
</g>
<g
   id="XMLID_288_"
   inkscape:export-filename="/home/ecarreras/Escriptori/rescat-cat.png"
   inkscape:export-xdpi="96"
   inkscape:export-ydpi="96"
   transform="translate(-98.5,-162.01821)">
	<circle
   id="XMLID_175_"
   class="st1"
   cx="587"
   cy="251.89999"
   r="56" />
	<line
   id="XMLID_178_"
   class="st1"
   x1="587"
   y1="201.60001"
   x2="587"
   y2="207" />
	<line
   id="XMLID_179_"
   class="st1"
   x1="587"
   y1="296.70001"
   x2="587"
   y2="302.10001" />
	<line
   id="XMLID_180_"
   class="st1"
   x1="637.29999"
   y1="251.89999"
   x2="631.90002"
   y2="251.89999" />
	<line
   id="XMLID_177_"
   class="st1"
   x1="542.20001"
   y1="251.89999"
   x2="536.70001"
   y2="251.89999" />
	<circle
   id="XMLID_181_"
   class="st2"
   cx="587"
   cy="251.89999"
   r="4.5" />
	<line
   id="XMLID_183_"
   class="st3"
   x1="587"
   y1="251.89999"
   x2="611.20001"
   y2="222" />
	<line
   id="XMLID_184_"
   class="st1"
   x1="571.79999"
   y1="236.89999"
   x2="587"
   y2="251.89999" />
</g>
<g
   id="XMLID_23_"
   inkscape:export-filename="/home/ecarreras/Escriptori/rescat-cat.png"
   inkscape:export-xdpi="96"
   inkscape:export-ydpi="96"
   transform="translate(-98.5,-162.01821)">
	<rect
   id="XMLID_22_"
   x="135.8"
   y="252.89999"
   class="st4"
   width="123.3"
   height="125.3" />
	
		<rect
   id="XMLID_114_"
   x="154.3"
   y="271.20001"
   transform="rotate(90,197.48925,315.60495)"
   class="st3"
   width="86.5"
   height="88.900002" />
	<rect
   id="XMLID_18_"
   x="289.20001"
   y="213"
   class="st4"
   width="108.6"
   height="77.800003" />
	
		<rect
   id="XMLID_122_"
   x="320.60001"
   y="213.5"
   transform="rotate(90,343.54,251.8508)"
   class="st3"
   width="45.900002"
   height="76.699997" />
	
		<rect
   id="XMLID_115_"
   x="292.70001"
   y="352.60001"
   transform="rotate(90,329.014,376.4334)"
   class="st3"
   width="72.599998"
   height="47.700001" />
	<rect
   id="XMLID_17_"
   x="289.20001"
   y="324.20001"
   class="st4"
   width="79.599998"
   height="104.5" />
</g>
<line
   id="XMLID_59_"
   class="st5"
   x1="735.29999"
   y1="622.18182"
   x2="743.20001"
   y2="622.18182"
   inkscape:export-filename="/home/ecarreras/Escriptori/rescat-cat.png"
   inkscape:export-xdpi="96"
   inkscape:export-ydpi="96" />
<line
   id="XMLID_56_"
   class="st5"
   x1="703.79999"
   y1="622.18182"
   x2="722.29999"
   y2="622.18182"
   inkscape:export-filename="/home/ecarreras/Escriptori/rescat-cat.png"
   inkscape:export-xdpi="96"
   inkscape:export-ydpi="96" />
<line
   id="XMLID_54_"
   class="st5"
   x1="374.5"
   y1="622.18182"
   x2="689.79999"
   y2="622.18182"
   inkscape:export-filename="/home/ecarreras/Escriptori/rescat-cat.png"
   inkscape:export-xdpi="96"
   inkscape:export-ydpi="96" />
<line
   id="XMLID_53_"
   class="st5"
   x1="101.5"
   y1="622.18182"
   x2="353.5"
   y2="622.18182"
   inkscape:export-filename="/home/ecarreras/Escriptori/rescat-cat.png"
   inkscape:export-xdpi="96"
   inkscape:export-ydpi="96" />
<line
   id="XMLID_52_"
   class="st5"
   x1="58"
   y1="622.18182"
   x2="80"
   y2="622.18182"
   inkscape:export-filename="/home/ecarreras/Escriptori/rescat-cat.png"
   inkscape:export-xdpi="96"
   inkscape:export-ydpi="96" />
<line
   id="XMLID_57_"
   class="st5"
   x1="28"
   y1="622.18182"
   x2="40"
   y2="622.18182"
   inkscape:export-filename="/home/ecarreras/Escriptori/rescat-cat.png"
   inkscape:export-xdpi="96"
   inkscape:export-ydpi="96" />
<g
   id="g14846"
   inkscape:export-filename="/home/ecarreras/Escriptori/rescat-cat.png"
   inkscape:export-xdpi="96"
   inkscape:export-ydpi="96"
   transform="translate(-98.5,-162.01821)">
	<path
   id="XMLID_28_"
   class="st6"
   d="m 330.9,674.4 c -18.2,-11.6 -50.3,-32 -64.2,-74.4 -9.7,-29.6 -9.9,-66.8 0.5,-70.3 12.1,-4 33.2,38.8 40.9,35.1 6.1,-2.9 -6.6,-29.4 -8.3,-74.3 -1.2,-30.6 3.2,-56.9 17,-80.3 6.3,-10.7 10.9,-18.6 16,-18 20.9,2.4 15,144 37.3,146.7 10.5,1.3 18.9,-29.2 30.7,-26.7 10,2.1 16.7,26.8 18.5,42.8 0.1,0.8 0.2,1.4 0.2,1.9 5.2,51.9 -25.1,89.3 -35.3,102 -15.3,18.8 -25.6,22.6 -33.6,22.7 -8.4,-0.1 -14.8,-4 -19.7,-7.2 z" />
	<path
   id="XMLID_41_"
   class="st7"
   d="m 325.5,477 c 3.5,37 24.5,93.3 27.6,141 2,31.1 0.1,58.5 -3,81" />
	<path
   id="XMLID_25_"
   class="st8"
   d="M 422,784.2 H 267 v 0 c -15.6,-27.6 -15,-61.5 1.5,-88.5 l 22.8,-37.3 h 106.3 l 22.1,34.5 c 16.4,25.5 18.3,57.8 5.2,85.1 z" />
	<path
   id="XMLID_44_"
   class="st7"
   d="m 375,561.9 c 0,0 -0.4,17 -23.8,39.1" />
	<path
   id="XMLID_47_"
   class="st7"
   d="m 301.1,601 c 0,0 15.7,32 52.8,32" />
	<path
   id="XMLID_48_"
   class="st9"
   d="m 382.3,684.8 c 0,0 23.6,15.4 23.6,52.3" />
</g>

<path
   id="XMLID_14_"
   class="st10"
   d="m 425.1,631.98179 c 0,29.2 49.9,53 111.4,53 48.2,0 89.2,-14.5 104.7,-34.9 l -116.5,8.4 z" /><path
   id="XMLID_15_"
   class="st11"
   d="m 625.2,629.08179 c -2.9,-0.6 -6,-0.3 -8.7,0.8 -17.6,6.9 -48.4,11.5 -83.4,11.5 -54.7,0 -99,-11.2 -99,-25 0,-12.2 34.7,-22.4 80.6,-24.6 l 3.2,-16.7 c -62.9,3.9 -110.7,23.4 -110.7,46.8 0,26.2 60,47.5 134,47.5 32.4,0 62.1,-4.1 85.3,-10.9 15,-4.5 14.1,-26.2 -1.3,-29.4 z" /><path
   id="XMLID_51_"
   class="st12"
   d="m 572.6,639.28179 48,-10.5 c 0,0 12.6,1.3 14.9,8 4,11.4 -4.2,18.4 -4.2,18.4 0,0 -3.1,-26.4 -58.7,-15.9 z" /><path
   id="XMLID_21_"
   class="st5"
   d="m 625.2,629.08179 c -2.9,-0.6 -6,-0.3 -8.7,0.8 -17.6,6.9 -48.4,11.5 -83.4,11.5 -54.7,0 -99,-11.2 -99,-25 0,-12.2 34.7,-22.4 80.6,-24.6 l 3.2,-16.7 c -62.9,3.9 -110.7,23.4 -110.7,46.8 0,26.2 60,47.5 134,47.5 32.4,0 62.1,-4.1 85.3,-10.9 15,-4.5 14.1,-26.2 -1.3,-29.4 z" /><path
   id="XMLID_27_"
   class="st11"
   d="m 615.8,277.88179 c -16,-5.1 -33.7,-8 -52.2,-8 -18.4,0 -35.9,2.8 -51.9,7.8 -9.7,-22.7 -22.9,-41.2 -36.8,-52.7 -2.2,-1.8 -5.5,-1.2 -6.9,1.3 -27.7,50.1 -40.1,107.4 -34.9,169.9 4.8,69.8 31.7,146.5 57.2,225.8 h 146.8 c 25.6,-79.2 52.2,-155.1 57.2,-224 5.5,-62.9 -7.1,-120.4 -35.6,-171 -1.4,-2.5 -4.7,-3.1 -6.9,-1.3 -13.6,11.6 -26.5,29.8 -36,52.2 z" /><path
   id="XMLID_55_"
   class="st12"
   d="m 575.9,371.88179 c 0,3.7 -5.5,6.7 -12.4,6.7 -6.8,0 -12.4,-3 -12.4,-6.7 l 12.5,-2.8 z" /><path
   id="XMLID_40_"
   class="st12"
   d="m 614.8,620.58179 c 0,0 0,-7.9 1.5,-14.5 13.2,-58.7 4.5,-76.8 4.5,-76.8 l -27.8,91.5 z" /><path
   id="XMLID_42_"
   class="st12"
   d="m 510.3,620.58179 c 0,0 0,-7.9 -1.5,-14.5 -13.2,-58.7 -4.5,-76.8 -4.5,-76.8 l 27.8,91.5 z" /><path
   id="XMLID_16_"
   class="st5"
   d="m 615.8,277.88179 c -16,-5.1 -33.7,-8 -52.2,-8 -18.4,0 -35.9,2.8 -51.9,7.8 -9.7,-22.7 -22.9,-41.2 -36.8,-52.7 -2.2,-1.8 -5.5,-1.2 -6.9,1.3 -27.7,50.1 -40.1,107.4 -34.9,169.9 4.8,69.8 31.7,146.5 57.2,225.8 h 146.8 c 25.6,-79.2 52.2,-155.1 57.2,-224 5.5,-62.9 -7.1,-120.4 -35.6,-171 -1.4,-2.5 -4.7,-3.1 -6.9,-1.3 -13.6,11.6 -26.5,29.8 -36,52.2 z" /><circle
   id="XMLID_6_"
   class="st13"
   cx="522.09998"
   cy="317.78177"
   r="8" /><circle
   id="XMLID_12_"
   class="st13"
   cx="605.09998"
   cy="317.78177"
   r="8" /><path
   id="XMLID_13_"
   class="st13"
   d="m 570.3,344.68179 c -4.4,-0.4 -8.8,-0.4 -13.2,0 -2.1,0.2 -2.8,2.3 -1.2,3.4 1.4,0.9 2.8,1.8 4.2,2.8 2,1.4 5.3,1.4 7.3,0 1.4,-1 2.8,-1.9 4.2,-2.8 1.5,-1.1 0.7,-3.2 -1.3,-3.4 z" /><g
   id="XMLID_32_"
   transform="translate(-98.5,-162.01821)">
		<path
   id="XMLID_39_"
   class="st11"
   d="m 719.1,694.2 c -1.7,29.5 -15.4,60.5 -24.8,90 -9.7,0 -32.2,0 -32.2,0 l 0.2,-83.1" />
		<path
   id="XMLID_34_"
   class="st11"
   d="m 605,694.2 c 1.7,29.5 18.4,60.5 27.8,90 9.7,0 29.2,0 29.2,0 l -0.2,-83.1" />
	</g><g
   id="XMLID_5_"
   transform="translate(-98.5,-162.01821)">
		<path
   id="XMLID_10_"
   class="st5"
   d="m 680.5,533 c -1.8,1 -4,1.6 -6.2,1.6 -6.7,0 -12.1,-4.9 -12.1,-10.9" />
		<path
   id="XMLID_7_"
   class="st5"
   d="m 643.7,533 c 1.8,1 4,1.6 6.2,1.6 6.7,0 12.1,-4.9 12.1,-10.9" />
	</g><g
   id="XMLID_29_"
   transform="translate(-98.5,-162.01821)">
		<path
   id="XMLID_11_"
   class="st5"
   d="m 719.1,694.2 c -1.7,29.5 -18.4,60.5 -27.8,90 -9.7,0 -29.2,0 -29.2,0 l 0.2,-83.1" />
		<path
   id="XMLID_30_"
   class="st5"
   d="m 605,694.2 c 1.7,29.5 15.4,60.5 24.8,90 9.7,0 32.2,0 32.2,0 l -0.2,-83.1" />
	</g><path
   id="XMLID_31_"
   class="st12"
   d="m 630.6,289.38179 c 7.4,-22.7 18.2,-28.5 18.2,-28.5 0,0 7.8,2.9 7.8,33.8" /><path
   id="XMLID_33_"
   class="st12"
   d="m 496.6,289.38179 c -7.4,-22.7 -18.2,-28.5 -18.2,-28.5 0,0 -7.8,2.9 -7.8,33.8" /><line
   id="XMLID_45_"
   class="st5"
   x1="545.79999"
   y1="610.18182"
   x2="548.29999"
   y2="621.48181" /><line
   id="XMLID_46_"
   class="st5"
   x1="581.40002"
   y1="610.18182"
   x2="578.90002"
   y2="621.48181" /><g
   id="XMLID_1_"
   class="st14"
   transform="translate(-98.5,-162.01821)">
		<path
   id="XMLID_19_"
   class="st15"
   d="m 707,528.7 c 12.1,3.2 24.6,3.8 36.6,2" />
		<path
   id="XMLID_20_"
   class="st15"
   d="m 703.6,536.3 c 11,7 22.4,11.8 33.4,14.3" />
		<path
   id="XMLID_35_"
   class="st15"
   d="m 707,517.9 c 9.9,-0.7 20.1,-3.4 30,-8.1" />
		<path
   id="XMLID_50_"
   class="st15"
   d="m 617.2,528.7 c -12.1,3.2 -24.6,3.8 -36.6,2" />
		<path
   id="XMLID_43_"
   class="st15"
   d="m 620.6,536.3 c -11,7 -22.4,11.8 -33.4,14.3" />
		<path
   id="XMLID_36_"
   class="st15"
   d="m 617.2,517.9 c -9.9,-0.7 -20.1,-3.4 -30,-8.1" />
	</g>
</svg>
