<?xml version="1.0" encoding="UTF-8" standalone="no"?>
<!-- Generator: Adobe Illustrator 23.1.1, SVG Export Plug-In . SVG Version: 6.00 Build 0)  -->

<svg
   version="1.1"
   id="Layer_1"
   x="0px"
   y="0px"
   viewBox="0 0 846.39404 720.62683"
   xml:space="preserve"
   sodipodi:docname="rescatanimal-dog.svg"
   inkscape:version="1.2-dev (7f65670a75, 2021-12-08)"
   inkscape:export-filename="/home/ecarreras/Escriptori/rescat-dog.png"
   inkscape:export-xdpi="96"
   inkscape:export-ydpi="96"
   width="846.39404"
   height="720.62683"
   xmlns:inkscape="http://www.inkscape.org/namespaces/inkscape"
   xmlns:sodipodi="http://sodipodi.sourceforge.net/DTD/sodipodi-0.dtd"
   xmlns="http://www.w3.org/2000/svg"
   xmlns:svg="http://www.w3.org/2000/svg"><defs
   id="defs321">
	
	
	
	
	
	
	
	
	
	
	
	
	
	
	
	
	
	
	
	
	
	
	
	
	
	
	
	
	
	
	
	
	
	
	
	
	

	
	
	
	
	
		
	
	
		
</defs><sodipodi:namedview
   id="namedview319"
   pagecolor="#ffffff"
   bordercolor="#666666"
   borderopacity="1.0"
   inkscape:pageshadow="2"
   inkscape:pageopacity="0.0"
   inkscape:pagecheckerboard="0"
   inkscape:blackoutopacity="0.0"
   showgrid="false"
   inkscape:zoom="0.60104076"
   inkscape:cx="128.943"
   inkscape:cy="313.62266"
   inkscape:window-width="1864"
   inkscape:window-height="1016"
   inkscape:window-x="56"
   inkscape:window-y="27"
   inkscape:window-maximized="1"
   inkscape:current-layer="Layer_1"
   fit-margin-top="25"
   fit-margin-left="25"
   fit-margin-right="25"
   fit-margin-bottom="25"
   lock-margins="true" />
<style
   type="text/css"
   id="style2">
	.st0{fill:#FFFFFF;}
	.st1{fill:none;stroke:#CECECE;stroke-width:6;stroke-linecap:round;stroke-linejoin:round;stroke-miterlimit:10;}
	.st2{fill:#00354C;}
	.st3{fill:none;stroke:#00354C;stroke-width:6;stroke-linecap:round;stroke-linejoin:round;stroke-miterlimit:10;}
	.st4{fill:#D1D1D1;}
	.st5{fill:#01D392;}
	.st6{fill:#F7BF46;}
	.st7{opacity:0.68;fill:none;stroke:#F7BF46;stroke-miterlimit:10;}
	.st8{fill:none;stroke:#00354C;stroke-width:3;stroke-linecap:round;stroke-linejoin:round;stroke-miterlimit:10;}
	.st9{fill:none;stroke:#00354C;stroke-width:4;stroke-linecap:round;stroke-linejoin:round;stroke-miterlimit:10;}
	.st10{fill:#F6F6F4;}
	
	/* Heart animation */
	@keyframes heartbeat {
		0%, 100% { transform: scale(1); }
		25% { transform: scale(1.1); }
		50% { transform: scale(1); }
		75% { transform: scale(1.15); }
	}
	
	#path1326 {
		animation: heartbeat 2s ease-in-out infinite;
		transform-origin: center;
		transform-box: fill-box;
	}
	
	/* Star animation */
	@keyframes twinkle {
		0%, 100% { opacity: 1; }
		50% { opacity: 0.4; }
	}
	
	#XMLID_74_, #XMLID_119_, #XMLID_108_ {
		animation: twinkle 2.5s ease-in-out infinite;
	}
	
	#XMLID_119_ {
		animation-delay: 0.8s;
	}
	
	#XMLID_108_ {
		animation-delay: 1.6s;
	}
</style>

<path
   id="XMLID_37_"
   class="st1"
   d="m 370.6,409.72684 139,114.2 c 6.9,5.7 16.9,5.7 23.8,0 v 0 c 9.1,-7.5 9.1,-21.5 0,-28.9 l -150,-123.2 c -7.4,-6.1 -18.1,-6.1 -25.6,0 l -149.9,123.1 c -9.1,7.5 -9.1,21.5 0,28.9 v 0 c 6.9,5.7 16.9,5.7 23.8,0 z"
   inkscape:export-filename="/home/ecarreras/Escriptori/rescat-dog.png"
   inkscape:export-xdpi="96"
   inkscape:export-ydpi="96" /><polygon
   id="XMLID_44_"
   class="st1"
   points="560.1,784.4 569.9,595.3 455.7,501.5 341.5,595.3 351.4,784.4 "
   inkscape:export-filename="/home/ecarreras/Escriptori/rescat-dog.png"
   inkscape:export-xdpi="96"
   inkscape:export-ydpi="96"
   transform="translate(-85.1,-91.77316)" /><path
   id="XMLID_36_"
   class="st1"
   d="m 370.6,531.42684 v 0 c -40.7,0 -72.6,27.3 -71.4,60 l 3.8,101.2 h 135.2 l 3.8,-101.2 c 1.2,-32.7 -30.7,-60 -71.4,-60 z"
   inkscape:export-filename="/home/ecarreras/Escriptori/rescat-dog.png"
   inkscape:export-xdpi="96"
   inkscape:export-ydpi="96" /><path
   id="XMLID_41_"
   class="st1"
   d="m 349.9,498.22684 c 1.9,4.4 7,6.4 11.4,4.6 2.8,-1.1 6,-1.8 9.3,-1.8 3.3,0 6.5,0.6 9.3,1.8 4.4,1.8 9.5,-0.2 11.4,-4.6 0.9,-2.1 1.4,-4.4 1.4,-6.7 0,-10.6 -9.9,-19.1 -22.2,-19.1 -12.3,0 -22.2,8.6 -22.2,19.1 0.2,2.4 0.6,4.6 1.6,6.7 z"
   inkscape:export-filename="/home/ecarreras/Escriptori/rescat-dog.png"
   inkscape:export-xdpi="96"
   inkscape:export-ydpi="96" /><ellipse
   id="XMLID_42_"
   transform="rotate(-38.128263)"
   class="st1"
   cx="-15.815394"
   cy="577.21851"
   rx="7.7996974"
   ry="6.5997434"
   inkscape:export-filename="/home/ecarreras/Escriptori/rescat-dog.png"
   inkscape:export-xdpi="96"
   inkscape:export-ydpi="96" /><ellipse
   id="XMLID_34_"
   class="st1"
   cx="370.60001"
   cy="454.82681"
   rx="10.2"
   ry="6.9000001"
   inkscape:export-filename="/home/ecarreras/Escriptori/rescat-dog.png"
   inkscape:export-xdpi="96"
   inkscape:export-ydpi="96" /><ellipse
   id="XMLID_39_"
   transform="rotate(-51.871737)"
   class="st1"
   cx="-123.18824"
   cy="598.62286"
   rx="6.5997434"
   ry="7.7996974"
   inkscape:export-filename="/home/ecarreras/Escriptori/rescat-dog.png"
   inkscape:export-xdpi="96"
   inkscape:export-ydpi="96" />

<line
   id="XMLID_10_"
   class="st3"
   x1="103.4"
   y1="692.42688"
   x2="114.9"
   y2="692.42688"
   inkscape:export-filename="/home/ecarreras/Escriptori/rescat-dog.png"
   inkscape:export-xdpi="96"
   inkscape:export-ydpi="96" />
<path
   id="XMLID_72_"
   class="st4"
   d="m 410.1,534.02684 c 2.9,-17.4 9.8,-37.4 18,-54.1 -11.4,18.6 -21.7,45.1 -25.4,67.5 -5.7,34.1 -3.8,65.4 4.9,85.3 l 5.2,-18.8 c -6.8,-19.9 -7.9,-48.7 -2.7,-79.9 z"
   inkscape:export-filename="/home/ecarreras/Escriptori/rescat-dog.png"
   inkscape:export-xdpi="96"
   inkscape:export-ydpi="96" />
<g
   id="XMLID_51_"
   inkscape:export-filename="/home/ecarreras/Escriptori/rescat-dog.png"
   inkscape:export-xdpi="96"
   inkscape:export-ydpi="96"
   transform="translate(-85.1,-91.77316)">
	<path
   id="XMLID_43_"
   class="st5"
   d="m 255.4,454.2 c -28.6,-2 -29.6,31 -24.6,53 2,12 -11,19 -16.9,28.2 -2.5,4 -4.8,8.7 -6,14.7 -3.3,15.9 6.1,29.4 7.6,43.9 0.4,3.6 0.3,7.3 -0.6,11.1 -1.1,4.1 -3.1,8.1 -5.1,12.1 -16,18 -42,39 -24,63 3.3,4.2 6.9,7.9 10.8,11.2 31.2,26.8 78.2,24.8 114.2,7.8 13,-7 26,-17 29,-32 2,-16 -5,-31 -15.7,-41.6 -3.2,-3.5 -6.7,-6.8 -10.3,-9.7 -2.6,-4 -4.2,-7.8 -5,-11.5 -1.9,-9.2 1,-17.8 3.8,-26.5 1.4,-4.3 2.7,-8.7 3.4,-13.2 3.8,-22.6 -18.2,-36.6 -30.2,-52.6 -5,-7 -3,-16 -1,-24 4,-19 -11,-35 -28.9,-34" />
	<path
   id="XMLID_35_"
   class="st3"
   d="m 259.9,548.9 c -4.6,21.7 -5.6,43 -5,64.3 0.2,5.3 13.9,94 5.1,132.8 -0.2,5.6 -0.2,8.9 -0.2,8.9" />
	<line
   id="XMLID_45_"
   class="st3"
   x1="274.79999"
   y1="632.79999"
   x2="259.89999"
   y2="654.29999" />
	<path
   id="XMLID_32_"
   class="st6"
   d="m 283.8,787.2 h -46 c -0.6,0 -1.1,-0.4 -1.2,-1 l -11.8,-49.8 h 72 L 285,786.3 c -0.1,0.5 -0.6,0.9 -1.2,0.9 z" />
	<line
   id="XMLID_47_"
   class="st7"
   x1="232"
   y1="764"
   x2="289.60001"
   y2="764" />
	<line
   id="XMLID_48_"
   class="st7"
   x1="232.89999"
   y1="767.59998"
   x2="288.70001"
   y2="767.59998" />
</g>
<line
   id="XMLID_23_"
   class="st3"
   x1="418.29999"
   y1="681.22687"
   x2="418.29999"
   y2="692.22687"
   inkscape:export-filename="/home/ecarreras/Escriptori/rescat-dog.png"
   inkscape:export-xdpi="96"
   inkscape:export-ydpi="96" />
<ellipse
   id="XMLID_69_"
   class="st5"
   cx="105.2"
   cy="497.42685"
   rx="10.7"
   ry="17.4"
   inkscape:export-filename="/home/ecarreras/Escriptori/rescat-dog.png"
   inkscape:export-xdpi="96"
   inkscape:export-ydpi="96" />
<rect
   id="XMLID_74_"
   x="909.95081"
   y="-95.991936"
   transform="rotate(45)"
   class="st5"
   width="13.999866"
   height="13.999866"
   inkscape:export-filename="/home/ecarreras/Escriptori/rescat-dog.png"
   inkscape:export-xdpi="96"
   inkscape:export-ydpi="96"
   style="stroke-width:0.99999" />
<rect
   id="XMLID_119_"
   x="660.31409"
   y="-251.14442"
   transform="rotate(45)"
   class="st5"
   width="8.9999132"
   height="8.9999132"
   inkscape:export-filename="/home/ecarreras/Escriptori/rescat-dog.png"
   inkscape:export-xdpi="96"
   inkscape:export-ydpi="96"
   style="stroke-width:0.99999" />
<g
   id="XMLID_104_"
   inkscape:export-filename="/home/ecarreras/Escriptori/rescat-dog.png"
   inkscape:export-xdpi="96"
   inkscape:export-ydpi="96"
   transform="translate(-85.1,-91.77316)">
	<g
   id="XMLID_75_">
		<line
   id="XMLID_76_"
   class="st8"
   x1="227.10001"
   y1="256.29999"
   x2="227.10001"
   y2="270.60001" />
		<line
   id="XMLID_78_"
   class="st8"
   x1="227.10001"
   y1="288.70001"
   x2="227.10001"
   y2="303" />
	</g>
	<g
   id="XMLID_77_">
		<line
   id="XMLID_80_"
   class="st8"
   x1="206.8"
   y1="268"
   x2="219.2"
   y2="275.10001" />
		<line
   id="XMLID_79_"
   class="st8"
   x1="235"
   y1="284.20001"
   x2="247.39999"
   y2="291.29999" />
	</g>
	<g
   id="XMLID_81_">
		<line
   id="XMLID_83_"
   class="st8"
   x1="206.8"
   y1="291.29999"
   x2="219.2"
   y2="284.20001" />
		<line
   id="XMLID_82_"
   class="st8"
   x1="235"
   y1="275.10001"
   x2="247.39999"
   y2="268" />
	</g>
</g>
<g
   id="XMLID_91_"
   inkscape:export-filename="/home/ecarreras/Escriptori/rescat-dog.png"
   inkscape:export-xdpi="96"
   inkscape:export-ydpi="96"
   transform="translate(-85.1,-91.77316)">
	<line
   id="XMLID_93_"
   class="st8"
   x1="853.09998"
   y1="317.39999"
   x2="853.09998"
   y2="327.29999" />
	<line
   id="XMLID_92_"
   class="st8"
   x1="853.09998"
   y1="339.89999"
   x2="853.09998"
   y2="349.89999" />
</g>
<g
   id="XMLID_88_"
   inkscape:export-filename="/home/ecarreras/Escriptori/rescat-dog.png"
   inkscape:export-xdpi="96"
   inkscape:export-ydpi="96"
   transform="translate(-85.1,-91.77316)">
	<line
   id="XMLID_90_"
   class="st8"
   x1="839.09998"
   y1="325.5"
   x2="847.70001"
   y2="330.5" />
	<line
   id="XMLID_89_"
   class="st8"
   x1="858.59998"
   y1="336.79999"
   x2="867.20001"
   y2="341.70001" />
</g>
<g
   id="XMLID_85_"
   inkscape:export-filename="/home/ecarreras/Escriptori/rescat-dog.png"
   inkscape:export-xdpi="96"
   inkscape:export-ydpi="96"
   transform="translate(-85.1,-91.77316)">
	<line
   id="XMLID_87_"
   class="st8"
   x1="839.09998"
   y1="341.70001"
   x2="847.70001"
   y2="336.79999" />
	<line
   id="XMLID_86_"
   class="st8"
   x1="858.59998"
   y1="330.5"
   x2="867.20001"
   y2="325.5" />
</g>
<circle
   id="XMLID_84_"
   class="st6"
   cx="691.40002"
   cy="373.02682"
   r="15.1"
   inkscape:export-filename="/home/ecarreras/Escriptori/rescat-dog.png"
   inkscape:export-xdpi="96"
   inkscape:export-ydpi="96" />
<g
   id="XMLID_103_"
   inkscape:export-filename="/home/ecarreras/Escriptori/rescat-dog.png"
   inkscape:export-xdpi="96"
   inkscape:export-ydpi="96"
   transform="translate(-85.1,-91.77316)">
	<g
   id="XMLID_100_">
		<line
   id="XMLID_102_"
   class="st8"
   x1="776.5"
   y1="442.79999"
   x2="776.5"
   y2="454.89999" />
		<line
   id="XMLID_101_"
   class="st8"
   x1="776.5"
   y1="474.60001"
   x2="776.5"
   y2="486.70001" />
	</g>
	<g
   id="XMLID_97_">
		<line
   id="XMLID_99_"
   class="st8"
   x1="757.5"
   y1="453.79999"
   x2="768"
   y2="459.79999" />
		<line
   id="XMLID_98_"
   class="st8"
   x1="785.09998"
   y1="469.70001"
   x2="795.59998"
   y2="475.70001" />
	</g>
	<g
   id="XMLID_94_">
		<line
   id="XMLID_96_"
   class="st8"
   x1="757.5"
   y1="476.39999"
   x2="768"
   y2="469.70001" />
		<line
   id="XMLID_95_"
   class="st8"
   x1="785.09998"
   y1="459.79999"
   x2="795.59998"
   y2="453.79999" />
	</g>
</g>
<line
   id="XMLID_106_"
   class="st9"
   x1="465.39999"
   y1="49.126835"
   x2="465.39999"
   y2="63.826847"
   inkscape:export-filename="/home/ecarreras/Escriptori/rescat-dog.png"
   inkscape:export-xdpi="96"
   inkscape:export-ydpi="96" />
<line
   id="XMLID_105_"
   class="st9"
   x1="472.69998"
   y1="56.426838"
   x2="458.10001"
   y2="56.426838"
   inkscape:export-filename="/home/ecarreras/Escriptori/rescat-dog.png"
   inkscape:export-xdpi="96"
   inkscape:export-ydpi="96" />
<line
   id="XMLID_110_"
   class="st9"
   x1="804.60004"
   y1="563.32684"
   x2="804.60004"
   y2="578.02686"
   inkscape:export-filename="/home/ecarreras/Escriptori/rescat-dog.png"
   inkscape:export-xdpi="96"
   inkscape:export-ydpi="96" />
<line
   id="XMLID_109_"
   class="st9"
   x1="811.90002"
   y1="570.72687"
   x2="797.20001"
   y2="570.72687"
   inkscape:export-filename="/home/ecarreras/Escriptori/rescat-dog.png"
   inkscape:export-xdpi="96"
   inkscape:export-ydpi="96" />
<line
   id="XMLID_107_"
   class="st9"
   x1="290.10001"
   y1="304.22684"
   x2="290.10001"
   y2="313.22684"
   inkscape:export-filename="/home/ecarreras/Escriptori/rescat-dog.png"
   inkscape:export-xdpi="96"
   inkscape:export-ydpi="96" />
<line
   id="XMLID_63_"
   class="st9"
   x1="294.60001"
   y1="308.72684"
   x2="285.60001"
   y2="308.72684"
   inkscape:export-filename="/home/ecarreras/Escriptori/rescat-dog.png"
   inkscape:export-xdpi="96"
   inkscape:export-ydpi="96" />
<rect
   id="XMLID_108_"
   x="440.33282"
   y="89.301872"
   transform="rotate(45)"
   class="st6"
   width="9.9999037"
   height="9.9999037"
   inkscape:export-filename="/home/ecarreras/Escriptori/rescat-dog.png"
   inkscape:export-xdpi="96"
   inkscape:export-ydpi="96"
   style="stroke-width:0.99999" />
<line
   id="XMLID_111_"
   class="st9"
   x1="27"
   y1="339.42685"
   x2="53.400002"
   y2="339.42685"
   inkscape:export-filename="/home/ecarreras/Escriptori/rescat-dog.png"
   inkscape:export-xdpi="96"
   inkscape:export-ydpi="96" />
<line
   id="XMLID_22_"
   class="st9"
   x1="62.400002"
   y1="339.42685"
   x2="72.500008"
   y2="339.42685"
   inkscape:export-filename="/home/ecarreras/Escriptori/rescat-dog.png"
   inkscape:export-xdpi="96"
   inkscape:export-ydpi="96" />
<line
   id="XMLID_113_"
   class="st9"
   x1="41.700005"
   y1="352.22684"
   x2="70.900002"
   y2="352.22684"
   inkscape:export-filename="/home/ecarreras/Escriptori/rescat-dog.png"
   inkscape:export-xdpi="96"
   inkscape:export-ydpi="96" />
<line
   id="XMLID_117_"
   class="st9"
   x1="599.10004"
   y1="463.32681"
   x2="625.40002"
   y2="463.32681"
   inkscape:export-filename="/home/ecarreras/Escriptori/rescat-dog.png"
   inkscape:export-xdpi="96"
   inkscape:export-ydpi="96" />
<line
   id="XMLID_116_"
   class="st9"
   x1="634.40002"
   y1="463.32681"
   x2="644.5"
   y2="463.32681"
   inkscape:export-filename="/home/ecarreras/Escriptori/rescat-dog.png"
   inkscape:export-xdpi="96"
   inkscape:export-ydpi="96" />
<line
   id="XMLID_115_"
   class="st9"
   x1="613.70001"
   y1="474.02682"
   x2="643"
   y2="474.02682"
   inkscape:export-filename="/home/ecarreras/Escriptori/rescat-dog.png"
   inkscape:export-xdpi="96"
   inkscape:export-ydpi="96" />
<line
   id="XMLID_66_"
   class="st3"
   x1="679.90002"
   y1="692.42688"
   x2="721.20001"
   y2="692.42688"
   inkscape:export-filename="/home/ecarreras/Escriptori/rescat-dog.png"
   inkscape:export-xdpi="96"
   inkscape:export-ydpi="96" />
<line
   id="XMLID_30_"
   class="st3"
   x1="135.89999"
   y1="692.42688"
   x2="218.60001"
   y2="692.42688"
   inkscape:export-filename="/home/ecarreras/Escriptori/rescat-dog.png"
   inkscape:export-xdpi="96"
   inkscape:export-ydpi="96" />







<path
   id="XMLID_31_"
   class="st0"
   d="m 631.9,548.42684 c 0.2,2.7 0.3,5.4 0.3,8.1 0,55.9 -45,101.3 -100.5,101.3 -46.6,0 -85.8,-32 -97.2,-75.4 4.1,52.1 47.4,93.2 100.2,93.2 55.5,0 100.5,-45.3 100.5,-101.3 0.1,-9 -1.1,-17.6 -3.3,-25.9 z"
   inkscape:export-filename="/home/ecarreras/Escriptori/rescat-dog.png"
   inkscape:export-xdpi="96"
   inkscape:export-ydpi="96" /><path
   id="XMLID_17_"
   class="st3"
   d="m 631.9,548.42684 c 0.2,2.7 0.3,5.4 0.3,8.1 0,55.9 -45,101.3 -100.5,101.3 -46.6,0 -85.8,-32 -97.2,-75.4 4.1,52.1 47.4,93.2 100.2,93.2 55.5,0 100.5,-45.3 100.5,-101.3 0.1,-9 -1.1,-17.6 -3.3,-25.9 z"
   inkscape:export-filename="/home/ecarreras/Escriptori/rescat-dog.png"
   inkscape:export-xdpi="96"
   inkscape:export-ydpi="96" /><path
   id="XMLID_28_"
   class="st0"
   d="m 456.2,457.42684 c -17,-7.6 -46.6,48.4 -53.5,90 -5.7,34.1 -3.8,65.4 4.9,85.3 z"
   inkscape:export-filename="/home/ecarreras/Escriptori/rescat-dog.png"
   inkscape:export-xdpi="96"
   inkscape:export-ydpi="96" /><path
   id="XMLID_1_"
   class="st3"
   d="m 456.2,457.42684 c -17,-7.6 -46.6,48.4 -53.5,90 -5.7,34.1 -3.8,65.4 4.9,85.3 z"
   inkscape:export-filename="/home/ecarreras/Escriptori/rescat-dog.png"
   inkscape:export-xdpi="96"
   inkscape:export-ydpi="96" /><path
   id="XMLID_68_"
   class="st0"
   d="m 508.6,457.42684 c 17,-7.6 46.6,48.4 53.5,90 5.7,34.1 3.8,65.4 -4.9,85.3 z"
   inkscape:export-filename="/home/ecarreras/Escriptori/rescat-dog.png"
   inkscape:export-xdpi="96"
   inkscape:export-ydpi="96" /><path
   id="XMLID_56_"
   class="st4"
   d="m 554.8,534.02684 c -2.9,-17.4 -9.8,-37.4 -18,-54.1 11.4,18.6 21.7,45.1 25.4,67.5 5.7,34.1 3.8,65.4 -4.9,85.3 l -5.2,-18.8 c 6.8,-19.9 7.8,-48.7 2.7,-79.9 z"
   inkscape:export-filename="/home/ecarreras/Escriptori/rescat-dog.png"
   inkscape:export-xdpi="96"
   inkscape:export-ydpi="96" /><path
   id="XMLID_54_"
   class="st3"
   d="m 508.6,457.42684 c 17,-7.6 46.6,48.4 53.5,90 5.7,34.1 3.8,65.4 -4.9,85.3 z"
   inkscape:export-filename="/home/ecarreras/Escriptori/rescat-dog.png"
   inkscape:export-xdpi="96"
   inkscape:export-ydpi="96" /><path
   id="XMLID_18_"
   class="st0"
   d="m 560.2,640.22684 c -1.1,-16.6 -44.3,-196.8 -56,-205.8 h -21.1 -21.7 c -11.7,9 -55,189.1 -56,205.8 -1.3,20.7 -8.1,52.2 31.2,52.2 h 46.5 46 c 39.2,0 32.4,-31.5 31.1,-52.2 z"
   inkscape:export-filename="/home/ecarreras/Escriptori/rescat-dog.png"
   inkscape:export-xdpi="96"
   inkscape:export-ydpi="96" /><path
   id="XMLID_20_"
   class="st4"
   d="m 410.1,614.72684 c 0,0 -3.1,26.4 11.7,36.1 11.6,7.7 21.8,10.8 40.9,14.3 10.3,1.9 21.5,2.7 21.5,2.7 l 1.2,23.7 -81.4,0.6 c 0,0 -1.4,-33.3 0.6,-43.3 2,-9.9 3,-26.5 5.5,-34.1 z"
   inkscape:export-filename="/home/ecarreras/Escriptori/rescat-dog.png"
   inkscape:export-xdpi="96"
   inkscape:export-ydpi="96" /><path
   id="XMLID_5_"
   class="st4"
   d="m 556.3,614.72684 c 0,0 3.1,26.4 -11.7,36.1 -11.6,7.7 -21.8,10.8 -40.9,14.3 -10.3,1.9 -21.5,2.7 -21.5,2.7 l -1.2,23.7 81.4,0.6 c 0,0 1.4,-33.3 -0.6,-43.3 -2,-9.9 -3,-26.5 -5.5,-34.1 z"
   inkscape:export-filename="/home/ecarreras/Escriptori/rescat-dog.png"
   inkscape:export-xdpi="96"
   inkscape:export-ydpi="96" /><path
   id="XMLID_64_"
   class="st6"
   d="m 518.5,470.72684 c -2.5,-0.7 -4.9,-1.1 -7,-1.1 -12.2,0 -21.9,6.5 -21.9,21.5 0,15.1 21.9,33 34.1,33 3.3,0 6.4,-0.9 9.2,-2.5 -4.9,-18.4 -9.9,-36.2 -14.4,-50.9 z"
   inkscape:export-filename="/home/ecarreras/Escriptori/rescat-dog.png"
   inkscape:export-xdpi="96"
   inkscape:export-ydpi="96" /><path
   id="XMLID_58_"
   class="st6"
   d="m 426,600.32684 c 13.5,0 24.5,-13.3 24.5,-29.7 0,-15.7 -10.1,-28.6 -22.9,-29.6 -5,19.6 -9.7,39 -13.5,55.5 3.6,2.4 7.6,3.8 11.9,3.8 z"
   inkscape:export-filename="/home/ecarreras/Escriptori/rescat-dog.png"
   inkscape:export-xdpi="96"
   inkscape:export-ydpi="96" /><path
   id="XMLID_46_"
   class="st4"
   d="m 458.3,438.72684 c 0,0 7.1,5.7 23.4,5.7 13.2,0 24.8,-5.7 24.8,-5.7 l -1,-3.9 H 459 Z"
   inkscape:export-filename="/home/ecarreras/Escriptori/rescat-dog.png"
   inkscape:export-xdpi="96"
   inkscape:export-ydpi="96" /><path
   id="XMLID_4_"
   class="st3"
   d="m 560.2,640.22684 c -1.1,-16.6 -44.3,-196.8 -56,-205.8 h -21.1 -21.7 c -11.7,9 -55,189.1 -56,205.8 -1.3,20.7 -8.1,52.2 31.2,52.2 h 46.5 46 c 39.2,0 32.4,-31.5 31.1,-52.2 z"
   inkscape:export-filename="/home/ecarreras/Escriptori/rescat-dog.png"
   inkscape:export-xdpi="96"
   inkscape:export-ydpi="96" /><path
   id="XMLID_9_"
   class="st0"
   d="m 557.9,362.42684 c -1.9,-19.5 -11.5,-68.8 -22.3,-103.3 -17.2,-55.1 -37.4,-69.5 -49.1,-71 -1.2,-0.2 -3.8,-0.2 -3.8,-0.2 0,0 -2.5,0 -3.8,0.2 -11.7,1.4 -31.8,15.7 -49.1,70.9 -10.8,34.5 -20.3,83.9 -22.3,103.5 -4.3,44 16.8,68.3 44.2,71.8 7.8,1 23.2,1 31,1 7.7,0 23.1,0 31,-1 27.3,-3.6 48.5,-27.9 44.2,-71.9 z"
   inkscape:export-filename="/home/ecarreras/Escriptori/rescat-dog.png"
   inkscape:export-xdpi="96"
   inkscape:export-ydpi="96" /><ellipse
   id="XMLID_49_"
   class="st4"
   cx="482.69998"
   cy="387.82684"
   rx="18.9"
   ry="14.9"
   inkscape:export-filename="/home/ecarreras/Escriptori/rescat-dog.png"
   inkscape:export-xdpi="96"
   inkscape:export-ydpi="96" /><path
   id="XMLID_55_"
   class="st4"
   d="m 465.4,193.72684 c 0,0 -9,33.9 -27.8,43.7 4.8,-10.8 11.3,-23.7 11.3,-23.7 0,0 11.2,-18.5 16.5,-20 z"
   inkscape:export-filename="/home/ecarreras/Escriptori/rescat-dog.png"
   inkscape:export-xdpi="96"
   inkscape:export-ydpi="96" /><path
   id="XMLID_53_"
   class="st4"
   d="m 486.5,188.22684 c 0,0 24.4,42 44.7,58.1 0,0 -4.6,-29.8 -9.1,-38.8 -4.5,-9 -26.5,-22.1 -35.6,-19.3 z"
   inkscape:export-filename="/home/ecarreras/Escriptori/rescat-dog.png"
   inkscape:export-xdpi="96"
   inkscape:export-ydpi="96" /><path
   id="XMLID_15_"
   class="st6"
   d="m 434.7,349.52684 c 39.3,-16.9 62.8,-50.2 52.4,-74.3 -7.3,-16.9 -29.3,-24.8 -55.3,-22.2 -0.6,1.9 -1.3,3.9 -1.9,6 -10,32 -18.9,76.7 -21.7,98.6 8.6,-1.6 17.6,-4.2 26.5,-8.1 z"
   inkscape:export-filename="/home/ecarreras/Escriptori/rescat-dog.png"
   inkscape:export-xdpi="96"
   inkscape:export-ydpi="96" /><path
   id="XMLID_14_"
   class="st3"
   d="m 539,395.32684 c -11.2,16.3 -35.7,27.3 -61.8,27.3 -24.2,0 -38.7,-14.2 -47.2,-31.9"
   inkscape:export-filename="/home/ecarreras/Escriptori/rescat-dog.png"
   inkscape:export-xdpi="96"
   inkscape:export-ydpi="96" /><ellipse
   id="XMLID_7_"
   class="st2"
   cx="482.69998"
   cy="385.22684"
   rx="23.700001"
   ry="12.2"
   inkscape:export-filename="/home/ecarreras/Escriptori/rescat-dog.png"
   inkscape:export-xdpi="96"
   inkscape:export-ydpi="96" /><path
   id="XMLID_2_"
   class="st0"
   d="m 612.8,686.12684 c -15.2,-14.3 -44.4,-21.4 -72.9,-19.2 -24.4,1.8 -42.5,10.1 -49.6,21.1 -1.2,1.9 0.3,4.4 2.6,4.4 h 115.5 c 4.5,0 7.2,-3.7 4.4,-6.3 z"
   inkscape:export-filename="/home/ecarreras/Escriptori/rescat-dog.png"
   inkscape:export-xdpi="96"
   inkscape:export-ydpi="96" /><path
   id="XMLID_50_"
   class="st4"
   d="m 612,685.92684 c -0.3,0.1 -0.7,0.2 -1.1,0.2 H 495.4 c -1.4,0 -2.6,-0.3 -3.5,-0.9 -0.3,0.3 -0.7,0.6 -1,0.9 -2.8,2.6 -0.1,6.3 4.5,6.3 h 115.5 c 2.3,0 3.8,-2.6 2.6,-4.4 -0.5,-0.8 -1,-1.5 -1.5,-2.1 z"
   inkscape:export-filename="/home/ecarreras/Escriptori/rescat-dog.png"
   inkscape:export-xdpi="96"
   inkscape:export-ydpi="96" /><path
   id="XMLID_19_"
   class="st3"
   d="m 612.8,686.12684 c -15.2,-14.3 -44.4,-21.4 -72.9,-19.2 -24.4,1.8 -42.5,10.1 -49.6,21.1 -1.2,1.9 0.3,4.4 2.6,4.4 h 115.5 c 4.5,0 7.2,-3.7 4.4,-6.3 z"
   inkscape:export-filename="/home/ecarreras/Escriptori/rescat-dog.png"
   inkscape:export-xdpi="96"
   inkscape:export-ydpi="96" /><line
   id="XMLID_8_"
   class="st3"
   x1="550.30005"
   y1="681.22687"
   x2="550.30005"
   y2="692.22687"
   inkscape:export-filename="/home/ecarreras/Escriptori/rescat-dog.png"
   inkscape:export-xdpi="96"
   inkscape:export-ydpi="96" /><path
   id="XMLID_25_"
   class="st0"
   d="m 355.9,686.12684 c 15.2,-14.3 44.4,-21.4 72.9,-19.2 24.4,1.8 42.5,10.1 49.6,21.1 1.2,1.9 -0.3,4.4 -2.6,4.4 H 360.3 c -4.5,0 -7.2,-3.7 -4.4,-6.3 z"
   inkscape:export-filename="/home/ecarreras/Escriptori/rescat-dog.png"
   inkscape:export-xdpi="96"
   inkscape:export-ydpi="96" /><path
   id="XMLID_67_"
   class="st4"
   d="m 477,685.92684 c -0.3,0.1 -0.7,0.2 -1.1,0.2 H 360.4 c -1.4,0 -2.6,-0.3 -3.5,-0.9 -0.3,0.3 -0.7,0.6 -1,0.9 -2.8,2.6 -0.1,6.3 4.5,6.3 h 115.5 c 2.3,0 3.8,-2.6 2.6,-4.4 -0.5,-0.8 -1,-1.5 -1.5,-2.1 z"
   inkscape:export-filename="/home/ecarreras/Escriptori/rescat-dog.png"
   inkscape:export-xdpi="96"
   inkscape:export-ydpi="96" /><path
   id="XMLID_24_"
   class="st3"
   d="m 355.9,686.12684 c 15.2,-14.3 44.4,-21.4 72.9,-19.2 24.4,1.8 42.5,10.1 49.6,21.1 1.2,1.9 -0.3,4.4 -2.6,4.4 H 360.3 c -4.5,0 -7.2,-3.7 -4.4,-6.3 z"
   inkscape:export-filename="/home/ecarreras/Escriptori/rescat-dog.png"
   inkscape:export-xdpi="96"
   inkscape:export-ydpi="96" /><path
   id="XMLID_13_"
   class="st3"
   d="m 557.9,362.42684 c -1.9,-19.5 -11.5,-68.8 -22.3,-103.3 -17.2,-55.1 -37.4,-69.5 -49.1,-71 -1.2,-0.2 -3.8,-0.2 -3.8,-0.2 0,0 -2.5,0 -3.8,0.2 -11.7,1.4 -31.8,15.7 -49.1,70.9 -10.8,34.5 -20.3,83.9 -22.3,103.5 -4.3,44 16.8,68.3 44.2,71.8 7.8,1 23.2,1 31,1 7.7,0 23.1,0 31,-1 27.3,-3.6 48.5,-27.9 44.2,-71.9 z"
   inkscape:export-filename="/home/ecarreras/Escriptori/rescat-dog.png"
   inkscape:export-xdpi="96"
   inkscape:export-ydpi="96" /><path
   id="XMLID_29_"
   class="st0"
   d="m 484.7,187.72684 c 0,0 34.9,-7.4 44.5,-2.9 9.9,4.6 27.8,39.7 20.4,53.4 -11.3,21 -44.5,-55 -64.9,-50.5 z"
   inkscape:export-filename="/home/ecarreras/Escriptori/rescat-dog.png"
   inkscape:export-xdpi="96"
   inkscape:export-ydpi="96" /><path
   id="XMLID_11_"
   class="st3"
   d="m 484.7,187.72684 c 0,0 34.9,-7.4 44.5,-2.9 9.9,4.6 27.8,39.7 20.4,53.4 -11.3,21 -44.5,-55 -64.9,-50.5 z"
   inkscape:export-filename="/home/ecarreras/Escriptori/rescat-dog.png"
   inkscape:export-xdpi="96"
   inkscape:export-ydpi="96" /><path
   id="XMLID_27_"
   class="st0"
   d="m 419.2,194.02684 48.3,-1.4 c 0,0 -44.8,48.2 -65.5,58.6 -20.7,10.4 0.5,-57.3 17.2,-57.2 z"
   inkscape:export-filename="/home/ecarreras/Escriptori/rescat-dog.png"
   inkscape:export-xdpi="96"
   inkscape:export-ydpi="96" /><path
   id="XMLID_12_"
   class="st3"
   d="m 419.2,194.02684 48.3,-1.4 c 0,0 -44.8,48.2 -65.5,58.6 -20.7,10.4 0.5,-57.3 17.2,-57.2 z"
   inkscape:export-filename="/home/ecarreras/Escriptori/rescat-dog.png"
   inkscape:export-xdpi="96"
   inkscape:export-ydpi="96" /><ellipse
   id="XMLID_3_"
   class="st2"
   cx="463.60001"
   cy="295.72684"
   rx="5"
   ry="6.5"
   inkscape:export-filename="/home/ecarreras/Escriptori/rescat-dog.png"
   inkscape:export-xdpi="96"
   inkscape:export-ydpi="96" /><ellipse
   id="XMLID_6_"
   class="st2"
   cx="505.80002"
   cy="295.72684"
   rx="5"
   ry="6.5"
   inkscape:export-filename="/home/ecarreras/Escriptori/rescat-dog.png"
   inkscape:export-xdpi="96"
   inkscape:export-ydpi="96" /><line
   id="XMLID_57_"
   class="st3"
   x1="307.19998"
   y1="692.42688"
   x2="653.90002"
   y2="692.42688"
   inkscape:export-filename="/home/ecarreras/Escriptori/rescat-dog.png"
   inkscape:export-xdpi="96"
   inkscape:export-ydpi="96" />
<path
   id="XMLID_21_"
   class="st10"
   d="m 719.7,96.226842 c 1.5,-1.8 2.4,-4.3 2.1,-7 -0.5,-4.2 -6.2,-6.3 -8.6,-6.8 -3.2,-0.6 -9.9,2.3 -9.9,7.8 0,0 0,0 0,0 0,1.3 -1,2.4 -2.3,2.4 h -45.5 c -1.3,0 -2.3,-1.1 -2.3,-2.3 0,-1.2 -0.2,-2.5 -0.8,-3.8 -1.3,-3 -4.6,-3.4 -7.5,-3.7 -5,-0.6 -10.3,1.9 -10.3,7.4 0,2.3 0.8,4.3 2.2,5.9 0.9,1.1 0.9,2.7 0,3.8 -1.5,1.799998 -2.4,4.299998 -2.1,6.999998 0.5,4.2 4.5,6 8.3,6.4 5,0.6 10.2,-2 10.2,-7.4 0,0 0,0 0,0 0,-1.3 1,-2.4 2.3,-2.4 H 701 c 1.3,0 2.3,1.1 2.3,2.3 0,1.2 0.2,2.5 0.8,3.8 1.3,3 6,3.7 7.8,4.1 3.2,0.6 9.9,-2.3 9.9,-7.8 0,-2.3 -0.8,-4.3 -2.2,-5.9 -0.8,-1.099998 -0.8,-2.699998 0.1,-3.799998 z"
   style="display:none" />
<g
   fill-rule="evenodd"
   id="g25971"
   transform="matrix(0.23401315,0,0,0.23401315,548.94632,-0.26098233)"
   style="fill:none;fill-opacity:1;stroke:#00354c;stroke-width:21.3663;stroke-miterlimit:4;stroke-dasharray:none;stroke-opacity:1"
   inkscape:export-filename="/home/ecarreras/Escriptori/rescat-dog.png"
   inkscape:export-xdpi="96"
   inkscape:export-ydpi="96"><path
     d="m 675.05,118.63 h 36.48 c 96.625,12.191 157.01,52.777 184.51,119.18 161.09,-8.8555 278.21,116.71 206.83,239.95 23.734,25.895 43.535,54.863 50.688,93.742 v 33.383 c -21.312,98.953 -113.02,165.82 -263.57,147.82 -38.734,50.809 -107.66,101.69 -214.92,95.352 -55.441,-3.3359 -94.008,-22.656 -127.78,-46.129 -35.566,19.512 -74.09,34.824 -129.74,34.992 -128.76,0.28906 -214.89,-74.879 -216.98,-177.98 C 117.791,634.819 61.728,589.795 46.458,512.76 v -33.383 c 16.848,-76.344 69.863,-124.3 158.14,-144.62 -5.3047,-128.79 171.27,-209.26 316.32,-152.52 34.539,-28.055 83.402,-58.656 154.13,-63.598 z"
     id="path25963"
     style="fill:none;fill-opacity:1;stroke:#00354c;stroke-width:21.3663;stroke-miterlimit:4;stroke-dasharray:none;stroke-opacity:1" /><path
     d="m 292.8,896.04 c 0,24.613 -19.953,44.57 -44.57,44.57 -24.613,0 -44.566,-19.957 -44.566,-44.57 0,-24.613 19.953,-44.566 44.566,-44.566 24.617,0 44.57,19.953 44.57,44.566"
     id="path25965"
     style="fill:none;fill-opacity:1;stroke:#00354c;stroke-width:21.3663;stroke-miterlimit:4;stroke-dasharray:none;stroke-opacity:1" /><path
     d="m 193.89,986.62 c 0,17.496 -14.184,31.68 -31.68,31.68 -17.496,0 -31.68,-14.184 -31.68,-31.68 0,-17.496 14.184,-31.68 31.68,-31.68 17.496,0 31.68,14.184 31.68,31.68"
     id="path25967"
     style="fill:none;fill-opacity:1;stroke:#00354c;stroke-width:21.3663;stroke-miterlimit:4;stroke-dasharray:none;stroke-opacity:1" /><path
     d="m 111.14,1061.5 c 0,12.578 -10.199,22.777 -22.777,22.777 -12.578,0 -22.773,-10.199 -22.773,-22.777 0,-12.578 10.195,-22.773 22.773,-22.773 12.578,0 22.777,10.195 22.777,22.773"
     id="path25969"
     style="fill:none;fill-opacity:1;stroke:#00354c;stroke-width:21.3663;stroke-miterlimit:4;stroke-dasharray:none;stroke-opacity:1" /></g><path
   d="m 664.55449,72.901212 c -4.47804,-0.0327 -8.97524,1.06657 -12.95117,3.69401 -27.61511,18.71284 -3.81474,61.897718 37.84172,91.227378 41.65597,-29.32717 65.45596,-72.512058 37.84164,-91.227378 -3.97534,-2.62711 -8.47307,-3.72674 -12.95116,-3.69401 -11.44299,0.0825 -22.75839,7.54828 -24.8938,15.74872 -2.13216,-8.20053 -13.44671,-15.66586 -24.89387,-15.74872 m 1.05982,8.30567 c 2.63389,-0.0282 5.18421,0.38876 7.12452,2.55593 l -5.05221,4.5201 c 0.28029,0.31301 -0.56258,-0.31301 -2.00017,-0.29845 -1.43627,0.0158 -3.30398,0.44637 -4.95736,1.38867 -3.30623,1.88264 -6.16062,5.32225 -4.97421,13.286758 l -6.70536,0.99987 c -1.50385,-10.093928 2.88383,-17.074578 8.32469,-20.176258 2.721,-1.54918 5.60483,-2.24874 8.23871,-2.28271"
   fill-rule="evenodd"
   id="path1326"
   style="fill:#cc0000;fill-opacity:1;stroke-width:0.082866"
   inkscape:export-filename="/home/ecarreras/Escriptori/rescat-dog.png"
   inkscape:export-xdpi="96"
   inkscape:export-ydpi="96" /></svg>
