<?xml version="1.0" encoding="UTF-8" standalone="no"?>
<!-- Generator: Adobe Illustrator 23.1.1, SVG Export Plug-In . SVG Version: 6.00 Build 0)  -->

<svg
   version="1.1"
   id="Layer_1"
   x="0px"
   y="0px"
   viewBox="0 0 1000 1000"
   style="enable-background:new 0 0 1000 1000;"
   xml:space="preserve"
   sodipodi:docname="rescatanimal-cat.svg"
   inkscape:version="1.2-dev (ad6ea68b36, 2021-12-06)"
   inkscape:export-filename="/home/ecarreras/Escriptori/rescat-cat.png"
   inkscape:export-xdpi="96"
   inkscape:export-ydpi="96"
   xmlns:inkscape="http://www.inkscape.org/namespaces/inkscape"
   xmlns:sodipodi="http://sodipodi.sourceforge.net/DTD/sodipodi-0.dtd"
   xmlns="http://www.w3.org/2000/svg"
   xmlns:svg="http://www.w3.org/2000/svg"><defs
   id="defs15095">
	
	
	
	
	
	
	
	
	
	
	
	
	
	
	
	
	
	
	
	
</defs><sodipodi:namedview
   id="namedview15093"
   pagecolor="#ffffff"
   bordercolor="#666666"
   borderopacity="1.0"
   inkscape:pageshadow="2"
   inkscape:pageopacity="0.0"
   inkscape:pagecheckerboard="0"
   inkscape:blackoutopacity="0.0"
   showgrid="false"
   inkscape:zoom="0.60104076"
   inkscape:cx="331.92424"
   inkscape:cy="686.30952"
   inkscape:window-width="1864"
   inkscape:window-height="1016"
   inkscape:window-x="56"
   inkscape:window-y="27"
   inkscape:window-maximized="1"
   inkscape:current-layer="Layer_1" />
<style
   type="text/css"
   id="style14799">
	.st0{fill:#F4F5F8;}
	.st1{fill:none;stroke:#E5E5E5;stroke-width:6;stroke-linecap:round;stroke-linejoin:round;stroke-miterlimit:10;}
	.st2{fill:#E5E5E5;}
	.st3{fill:none;stroke:#E5E5E5;stroke-width:4;stroke-linecap:round;stroke-linejoin:round;stroke-miterlimit:10;}
	.st4{fill:none;stroke:#E5E5E5;stroke-width:8;stroke-linecap:round;stroke-linejoin:round;stroke-miterlimit:10;}
	.st5{fill:none;stroke:#A83727;stroke-width:6;stroke-linecap:round;stroke-linejoin:round;stroke-miterlimit:10;}
	.st6{fill:#6DCCA3;}
	.st7{fill:none;stroke:#465172;stroke-width:6;stroke-linecap:round;stroke-linejoin:round;stroke-miterlimit:10;}
	.st8{fill:#2359B2;}
	.st9{opacity:0.67;fill:none;stroke:#1E2A54;stroke-width:6;stroke-linecap:round;stroke-linejoin:round;stroke-miterlimit:10;}
	.st10{fill:#D6D6D6;}
	.st11{fill:#F78A21;}
	.st12{opacity:0.26;fill:#9B463D;}
	.st13{fill:#A83727;}
	.st14{opacity:0.24;}
	.st15{fill:none;stroke:#A83727;stroke-width:2;stroke-linecap:round;stroke-linejoin:round;stroke-miterlimit:10;}
</style>
<rect
   id="XMLID_26_-3"
   class="st0"
   width="1000"
   height="1000"
   inkscape:export-filename="/home/ecarreras/Escriptori/rescat-cat.png"
   inkscape:export-xdpi="96"
   inkscape:export-ydpi="96"
   style="enable-background:new 0 0 1000 1000;fill:#ffffff"
   x="0.91252416"
   y="-0.10702712" /><g
   fill-rule="evenodd"
   id="g25971"
   transform="matrix(0.23401315,0,0,0.23401315,673.16943,161.75723)"
   style="fill:none;fill-opacity:1;stroke:#a83727;stroke-width:21.3663;stroke-miterlimit:4;stroke-dasharray:none;stroke-opacity:1"
   inkscape:export-filename="/home/ecarreras/Escriptori/rescat-dog.png"
   inkscape:export-xdpi="96"
   inkscape:export-ydpi="96"><path
     d="m 675.05,118.63 h 36.48 c 96.625,12.191 157.01,52.777 184.51,119.18 161.09,-8.8555 278.21,116.71 206.83,239.95 23.734,25.895 43.535,54.863 50.688,93.742 v 33.383 c -21.312,98.953 -113.02,165.82 -263.57,147.82 -38.734,50.809 -107.66,101.69 -214.92,95.352 -55.441,-3.3359 -94.008,-22.656 -127.78,-46.129 -35.566,19.512 -74.09,34.824 -129.74,34.992 -128.76,0.28906 -214.89,-74.879 -216.98,-177.98 C 117.791,634.819 61.728,589.795 46.458,512.76 v -33.383 c 16.848,-76.344 69.863,-124.3 158.14,-144.62 -5.3047,-128.79 171.27,-209.26 316.32,-152.52 34.539,-28.055 83.402,-58.656 154.13,-63.598 z"
     id="path25963"
     style="fill:none;fill-opacity:1;stroke:#a83727;stroke-width:21.3663;stroke-miterlimit:4;stroke-dasharray:none;stroke-opacity:1" /><path
     d="m 292.8,896.04 c 0,24.613 -19.953,44.57 -44.57,44.57 -24.613,0 -44.566,-19.957 -44.566,-44.57 0,-24.613 19.953,-44.566 44.566,-44.566 24.617,0 44.57,19.953 44.57,44.566"
     id="path25965"
     style="fill:none;fill-opacity:1;stroke:#a83727;stroke-width:21.3663;stroke-miterlimit:4;stroke-dasharray:none;stroke-opacity:1" /><path
     d="m 193.89,986.62 c 0,17.496 -14.184,31.68 -31.68,31.68 -17.496,0 -31.68,-14.184 -31.68,-31.68 0,-17.496 14.184,-31.68 31.68,-31.68 17.496,0 31.68,14.184 31.68,31.68"
     id="path25967"
     style="fill:none;fill-opacity:1;stroke:#a83727;stroke-width:21.3663;stroke-miterlimit:4;stroke-dasharray:none;stroke-opacity:1" /><path
     d="m 111.14,1061.5 c 0,12.578 -10.199,22.777 -22.777,22.777 -12.578,0 -22.773,-10.199 -22.773,-22.777 0,-12.578 10.195,-22.773 22.773,-22.773 12.578,0 22.777,10.195 22.777,22.773"
     id="path25969"
     style="fill:none;fill-opacity:1;stroke:#a83727;stroke-width:21.3663;stroke-miterlimit:4;stroke-dasharray:none;stroke-opacity:1" /></g><path
   d="m 790.02041,235.85387 c -4.47804,-0.0327 -8.97524,1.06657 -12.95117,3.69401 -27.61511,18.71284 -3.81474,61.89772 37.84172,91.22738 41.65597,-29.32717 65.45596,-72.51206 37.84164,-91.22738 -3.97534,-2.62711 -8.47307,-3.72674 -12.95116,-3.69401 -11.44299,0.0825 -22.75839,7.54828 -24.8938,15.74872 -2.13216,-8.20053 -13.44671,-15.66586 -24.89387,-15.74872 m 1.05982,8.30567 c 2.63389,-0.0282 5.18421,0.38876 7.12452,2.55593 l -5.05221,4.5201 c 0.28029,0.31301 -0.56258,-0.31301 -2.00017,-0.29845 -1.43627,0.0158 -3.30398,0.44637 -4.95736,1.38867 -3.30623,1.88264 -6.16062,5.32225 -4.97421,13.28676 l -6.70536,0.99987 c -1.50385,-10.09393 2.88383,-17.07458 8.32469,-20.17626 2.721,-1.54918 5.60483,-2.24874 8.23871,-2.28271"
   fill-rule="evenodd"
   id="path1326"
   style="fill:#cc0000;fill-opacity:1;stroke-width:0.082866"
   inkscape:export-filename="/home/ecarreras/Escriptori/rescat-cat.png"
   inkscape:export-xdpi="96"
   inkscape:export-ydpi="96" />
<g
   id="XMLID_278_"
   inkscape:export-filename="/home/ecarreras/Escriptori/rescat-cat.png"
   inkscape:export-xdpi="96"
   inkscape:export-ydpi="96">
	<polyline
   id="XMLID_285_"
   class="st1"
   points="243.9,634.7 243.9,665.6 182,665.6  " />
	<polyline
   id="XMLID_284_"
   class="st1"
   points="305.7,665.6 243.9,665.6 243.9,634.7  " />
	<rect
   id="XMLID_283_"
   x="212.9"
   y="665.6"
   class="st1"
   width="61.9"
   height="30.9" />
	<polyline
   id="XMLID_282_"
   class="st1"
   points="261.4,727.5 243.9,727.5 243.9,696.5 305.7,696.5  " />
	<polyline
   id="XMLID_281_"
   class="st1"
   points="182,696.5 243.9,696.5 243.9,727.5 193.7,727.5  " />
	<polyline
   id="XMLID_280_"
   class="st1"
   points="160.9,665.6 212.9,665.6 212.9,696.5 182,696.5  " />
	<polyline
   id="XMLID_279_"
   class="st1"
   points="319.4,696.5 274.8,696.5 274.8,665.6 296.2,665.6  " />
</g>
<g
   id="XMLID_2_"
   inkscape:export-filename="/home/ecarreras/Escriptori/rescat-cat.png"
   inkscape:export-xdpi="96"
   inkscape:export-ydpi="96">
	<polyline
   id="XMLID_49_"
   class="st1"
   points="817.6,441.4 817.6,472.3 879.5,472.3  " />
	<polyline
   id="XMLID_38_"
   class="st1"
   points="755.8,472.3 817.6,472.3 817.6,441.4  " />
	
		<rect
   id="XMLID_37_"
   x="786.7"
   y="472.3"
   transform="matrix(-1 -4.487045e-11 4.487045e-11 -1 1635.2858 975.629)"
   class="st1"
   width="61.9"
   height="30.9" />
	<polyline
   id="XMLID_26_"
   class="st1"
   points="800.1,534.2 817.6,534.2 817.6,503.3 755.8,503.3  " />
	<polyline
   id="XMLID_8_"
   class="st1"
   points="879.5,503.3 817.6,503.3 817.6,534.2 867.8,534.2  " />
	<polyline
   id="XMLID_4_"
   class="st1"
   points="900.6,472.3 848.6,472.3 848.6,503.3 879.5,503.3  " />
	<polyline
   id="XMLID_3_"
   class="st1"
   points="742.1,503.3 786.7,503.3 786.7,472.3 765.3,472.3  " />
</g>
<g
   id="XMLID_288_"
   inkscape:export-filename="/home/ecarreras/Escriptori/rescat-cat.png"
   inkscape:export-xdpi="96"
   inkscape:export-ydpi="96">
	<circle
   id="XMLID_175_"
   class="st1"
   cx="587"
   cy="251.9"
   r="56" />
	<line
   id="XMLID_178_"
   class="st1"
   x1="587"
   y1="201.6"
   x2="587"
   y2="207" />
	<line
   id="XMLID_179_"
   class="st1"
   x1="587"
   y1="296.7"
   x2="587"
   y2="302.1" />
	<line
   id="XMLID_180_"
   class="st1"
   x1="637.3"
   y1="251.9"
   x2="631.9"
   y2="251.9" />
	<line
   id="XMLID_177_"
   class="st1"
   x1="542.2"
   y1="251.9"
   x2="536.7"
   y2="251.9" />
	<circle
   id="XMLID_181_"
   class="st2"
   cx="587"
   cy="251.9"
   r="4.5" />
	<line
   id="XMLID_183_"
   class="st3"
   x1="587"
   y1="251.9"
   x2="611.2"
   y2="222" />
	<line
   id="XMLID_184_"
   class="st1"
   x1="571.8"
   y1="236.9"
   x2="587"
   y2="251.9" />
</g>
<g
   id="XMLID_23_"
   inkscape:export-filename="/home/ecarreras/Escriptori/rescat-cat.png"
   inkscape:export-xdpi="96"
   inkscape:export-ydpi="96">
	<rect
   id="XMLID_22_"
   x="135.8"
   y="252.9"
   class="st4"
   width="123.3"
   height="125.3" />
	
		<rect
   id="XMLID_114_"
   x="154.3"
   y="271.2"
   transform="matrix(-1.836970e-16 1 -1 -1.836970e-16 513.0942 118.1157)"
   class="st3"
   width="86.5"
   height="88.9" />
	<rect
   id="XMLID_18_"
   x="289.2"
   y="213"
   class="st4"
   width="108.6"
   height="77.8" />
	
		<rect
   id="XMLID_122_"
   x="320.6"
   y="213.5"
   transform="matrix(-1.836970e-16 1 -1 -1.836970e-16 595.3908 -91.6892)"
   class="st3"
   width="45.9"
   height="76.7" />
	
		<rect
   id="XMLID_115_"
   x="292.7"
   y="352.6"
   transform="matrix(-1.836970e-16 1 -1 -1.836970e-16 705.4474 47.4194)"
   class="st3"
   width="72.6"
   height="47.7" />
	<rect
   id="XMLID_17_"
   x="289.2"
   y="324.2"
   class="st4"
   width="79.6"
   height="104.5" />
</g>
<line
   id="XMLID_59_"
   class="st5"
   x1="833.8"
   y1="784.2"
   x2="841.7"
   y2="784.2"
   inkscape:export-filename="/home/ecarreras/Escriptori/rescat-cat.png"
   inkscape:export-xdpi="96"
   inkscape:export-ydpi="96" />
<line
   id="XMLID_56_"
   class="st5"
   x1="802.3"
   y1="784.2"
   x2="820.8"
   y2="784.2"
   inkscape:export-filename="/home/ecarreras/Escriptori/rescat-cat.png"
   inkscape:export-xdpi="96"
   inkscape:export-ydpi="96" />
<line
   id="XMLID_54_"
   class="st5"
   x1="473"
   y1="784.2"
   x2="788.3"
   y2="784.2"
   inkscape:export-filename="/home/ecarreras/Escriptori/rescat-cat.png"
   inkscape:export-xdpi="96"
   inkscape:export-ydpi="96" />
<line
   id="XMLID_53_"
   class="st5"
   x1="200"
   y1="784.2"
   x2="452"
   y2="784.2"
   inkscape:export-filename="/home/ecarreras/Escriptori/rescat-cat.png"
   inkscape:export-xdpi="96"
   inkscape:export-ydpi="96" />
<line
   id="XMLID_52_"
   class="st5"
   x1="156.5"
   y1="784.2"
   x2="178.5"
   y2="784.2"
   inkscape:export-filename="/home/ecarreras/Escriptori/rescat-cat.png"
   inkscape:export-xdpi="96"
   inkscape:export-ydpi="96" />
<line
   id="XMLID_57_"
   class="st5"
   x1="126.5"
   y1="784.2"
   x2="138.5"
   y2="784.2"
   inkscape:export-filename="/home/ecarreras/Escriptori/rescat-cat.png"
   inkscape:export-xdpi="96"
   inkscape:export-ydpi="96" />
<g
   id="g14846"
   inkscape:export-filename="/home/ecarreras/Escriptori/rescat-cat.png"
   inkscape:export-xdpi="96"
   inkscape:export-ydpi="96">
	<path
   id="XMLID_28_"
   class="st6"
   d="M330.9,674.4c-18.2-11.6-50.3-32-64.2-74.4c-9.7-29.6-9.9-66.8,0.5-70.3   c12.1-4,33.2,38.8,40.9,35.1c6.1-2.9-6.6-29.4-8.3-74.3c-1.2-30.6,3.2-56.9,17-80.3c6.3-10.7,10.9-18.6,16-18   c20.9,2.4,15,144,37.3,146.7c10.5,1.3,18.9-29.2,30.7-26.7c10,2.1,16.7,26.8,18.5,42.8c0.1,0.8,0.2,1.4,0.2,1.9   c5.2,51.9-25.1,89.3-35.3,102c-15.3,18.8-25.6,22.6-33.6,22.7C342.2,681.5,335.8,677.6,330.9,674.4z" />
	<path
   id="XMLID_41_"
   class="st7"
   d="M325.5,477c3.5,37,24.5,93.3,27.6,141c2,31.1,0.1,58.5-3,81" />
	<path
   id="XMLID_25_"
   class="st8"
   d="M422,784.2H267l0,0c-15.6-27.6-15-61.5,1.5-88.5l22.8-37.3h106.3l22.1,34.5   c16.4,25.5,18.3,57.8,5.2,85.1L422,784.2z" />
	<path
   id="XMLID_44_"
   class="st7"
   d="M375,561.9c0,0-0.4,17-23.8,39.1" />
	<path
   id="XMLID_47_"
   class="st7"
   d="M301.1,601c0,0,15.7,32,52.8,32" />
	<path
   id="XMLID_48_"
   class="st9"
   d="M382.3,684.8c0,0,23.6,15.4,23.6,52.3" />
</g>

<path
   id="XMLID_14_"
   class="st10"
   d="m 523.6,794 c 0,29.2 49.9,53 111.4,53 48.2,0 89.2,-14.5 104.7,-34.9 l -116.5,8.4 z" /><path
   id="XMLID_15_"
   class="st11"
   d="m 723.7,791.1 c -2.9,-0.6 -6,-0.3 -8.7,0.8 -17.6,6.9 -48.4,11.5 -83.4,11.5 -54.7,0 -99,-11.2 -99,-25 0,-12.2 34.7,-22.4 80.6,-24.6 l 3.2,-16.7 c -62.9,3.9 -110.7,23.4 -110.7,46.8 0,26.2 60,47.5 134,47.5 32.4,0 62.1,-4.1 85.3,-10.9 15,-4.5 14.1,-26.2 -1.3,-29.4 z" /><path
   id="XMLID_51_"
   class="st12"
   d="m 671.1,801.3 48,-10.5 c 0,0 12.6,1.3 14.9,8 4,11.4 -4.2,18.4 -4.2,18.4 0,0 -3.1,-26.4 -58.7,-15.9 z" /><path
   id="XMLID_21_"
   class="st5"
   d="m 723.7,791.1 c -2.9,-0.6 -6,-0.3 -8.7,0.8 -17.6,6.9 -48.4,11.5 -83.4,11.5 -54.7,0 -99,-11.2 -99,-25 0,-12.2 34.7,-22.4 80.6,-24.6 l 3.2,-16.7 c -62.9,3.9 -110.7,23.4 -110.7,46.8 0,26.2 60,47.5 134,47.5 32.4,0 62.1,-4.1 85.3,-10.9 15,-4.5 14.1,-26.2 -1.3,-29.4 z" /><path
   id="XMLID_27_"
   class="st11"
   d="m 714.3,439.9 c -16,-5.1 -33.7,-8 -52.2,-8 -18.4,0 -35.9,2.8 -51.9,7.8 -9.7,-22.7 -22.9,-41.2 -36.8,-52.7 -2.2,-1.8 -5.5,-1.2 -6.9,1.3 -27.7,50.1 -40.1,107.4 -34.9,169.9 4.8,69.8 31.7,146.5 57.2,225.8 h 146.8 c 25.6,-79.2 52.2,-155.1 57.2,-224 5.5,-62.9 -7.1,-120.4 -35.6,-171 -1.4,-2.5 -4.7,-3.1 -6.9,-1.3 -13.6,11.6 -26.5,29.8 -36,52.2 z" /><path
   id="XMLID_55_"
   class="st12"
   d="m 674.4,533.9 c 0,3.7 -5.5,6.7 -12.4,6.7 -6.8,0 -12.4,-3 -12.4,-6.7 l 12.5,-2.8 z" /><path
   id="XMLID_40_"
   class="st12"
   d="m 713.3,782.6 c 0,0 0,-7.9 1.5,-14.5 13.2,-58.7 4.5,-76.8 4.5,-76.8 l -27.8,91.5 z" /><path
   id="XMLID_42_"
   class="st12"
   d="m 608.8,782.6 c 0,0 0,-7.9 -1.5,-14.5 -13.2,-58.7 -4.5,-76.8 -4.5,-76.8 l 27.8,91.5 z" /><path
   id="XMLID_16_"
   class="st5"
   d="m 714.3,439.9 c -16,-5.1 -33.7,-8 -52.2,-8 -18.4,0 -35.9,2.8 -51.9,7.8 -9.7,-22.7 -22.9,-41.2 -36.8,-52.7 -2.2,-1.8 -5.5,-1.2 -6.9,1.3 -27.7,50.1 -40.1,107.4 -34.9,169.9 4.8,69.8 31.7,146.5 57.2,225.8 h 146.8 c 25.6,-79.2 52.2,-155.1 57.2,-224 5.5,-62.9 -7.1,-120.4 -35.6,-171 -1.4,-2.5 -4.7,-3.1 -6.9,-1.3 -13.6,11.6 -26.5,29.8 -36,52.2 z" /><circle
   id="XMLID_6_"
   class="st13"
   cx="620.59998"
   cy="479.79999"
   r="8" /><circle
   id="XMLID_12_"
   class="st13"
   cx="703.59998"
   cy="479.79999"
   r="8" /><path
   id="XMLID_13_"
   class="st13"
   d="m 668.8,506.7 c -4.4,-0.4 -8.8,-0.4 -13.2,0 -2.1,0.2 -2.8,2.3 -1.2,3.4 1.4,0.9 2.8,1.8 4.2,2.8 2,1.4 5.3,1.4 7.3,0 1.4,-1 2.8,-1.9 4.2,-2.8 1.5,-1.1 0.7,-3.2 -1.3,-3.4 z" /><g
   id="XMLID_32_">
		<path
   id="XMLID_39_"
   class="st11"
   d="m 719.1,694.2 c -1.7,29.5 -15.4,60.5 -24.8,90 -9.7,0 -32.2,0 -32.2,0 l 0.2,-83.1" />
		<path
   id="XMLID_34_"
   class="st11"
   d="m 605,694.2 c 1.7,29.5 18.4,60.5 27.8,90 9.7,0 29.2,0 29.2,0 l -0.2,-83.1" />
	</g><g
   id="XMLID_5_">
		<path
   id="XMLID_10_"
   class="st5"
   d="m 680.5,533 c -1.8,1 -4,1.6 -6.2,1.6 -6.7,0 -12.1,-4.9 -12.1,-10.9" />
		<path
   id="XMLID_7_"
   class="st5"
   d="m 643.7,533 c 1.8,1 4,1.6 6.2,1.6 6.7,0 12.1,-4.9 12.1,-10.9" />
	</g><g
   id="XMLID_29_">
		<path
   id="XMLID_11_"
   class="st5"
   d="m 719.1,694.2 c -1.7,29.5 -18.4,60.5 -27.8,90 -9.7,0 -29.2,0 -29.2,0 l 0.2,-83.1" />
		<path
   id="XMLID_30_"
   class="st5"
   d="m 605,694.2 c 1.7,29.5 15.4,60.5 24.8,90 9.7,0 32.2,0 32.2,0 l -0.2,-83.1" />
	</g><path
   id="XMLID_31_"
   class="st12"
   d="m 729.1,451.4 c 7.4,-22.7 18.2,-28.5 18.2,-28.5 0,0 7.8,2.9 7.8,33.8" /><path
   id="XMLID_33_"
   class="st12"
   d="m 595.1,451.4 c -7.4,-22.7 -18.2,-28.5 -18.2,-28.5 0,0 -7.8,2.9 -7.8,33.8" /><line
   id="XMLID_45_"
   class="st5"
   x1="644.29999"
   y1="772.20001"
   x2="646.79999"
   y2="783.5" /><line
   id="XMLID_46_"
   class="st5"
   x1="679.90002"
   y1="772.20001"
   x2="677.40002"
   y2="783.5" /><g
   id="XMLID_1_"
   class="st14">
		<path
   id="XMLID_19_"
   class="st15"
   d="m 707,528.7 c 12.1,3.2 24.6,3.8 36.6,2" />
		<path
   id="XMLID_20_"
   class="st15"
   d="m 703.6,536.3 c 11,7 22.4,11.8 33.4,14.3" />
		<path
   id="XMLID_35_"
   class="st15"
   d="m 707,517.9 c 9.9,-0.7 20.1,-3.4 30,-8.1" />
		<path
   id="XMLID_50_"
   class="st15"
   d="m 617.2,528.7 c -12.1,3.2 -24.6,3.8 -36.6,2" />
		<path
   id="XMLID_43_"
   class="st15"
   d="m 620.6,536.3 c -11,7 -22.4,11.8 -33.4,14.3" />
		<path
   id="XMLID_36_"
   class="st15"
   d="m 617.2,517.9 c -9.9,-0.7 -20.1,-3.4 -30,-8.1" />
	</g>
</svg>
