<?xml version="1.0" encoding="UTF-8" standalone="no"?>
<!-- Generator: Adobe Illustrator 23.1.1, SVG Export Plug-In . SVG Version: 6.00 Build 0)  -->

<svg
   version="1.1"
   id="Layer_1"
   x="0px"
   y="0px"
   viewBox="0 0 1000 1000"
   style="enable-background:new 0 0 1000 1000;"
   xml:space="preserve"
   sodipodi:docname="rescatanimal-dog-bubble.svg"
   inkscape:version="1.2-dev (ad6ea68b36, 2021-12-06)"
   inkscape:export-filename="/home/ecarreras/Escriptori/rescat-dog.png"
   inkscape:export-xdpi="96"
   inkscape:export-ydpi="96"
   xmlns:inkscape="http://www.inkscape.org/namespaces/inkscape"
   xmlns:sodipodi="http://sodipodi.sourceforge.net/DTD/sodipodi-0.dtd"
   xmlns="http://www.w3.org/2000/svg"
   xmlns:svg="http://www.w3.org/2000/svg"><defs
   id="defs321">
	
	
	
	
	
	
	
	
	
	
	
	
	
	
	
	
	
	
	
	
	
	
	
	
	
	
	
	
	
	
	
	
	
	
	
	
	

	
	
	
	
	
		
	
	
		
</defs><sodipodi:namedview
   id="namedview319"
   pagecolor="#ffffff"
   bordercolor="#666666"
   borderopacity="1.0"
   inkscape:pageshadow="2"
   inkscape:pageopacity="0.0"
   inkscape:pagecheckerboard="0"
   inkscape:blackoutopacity="0.0"
   showgrid="false"
   inkscape:zoom="0.60104076"
   inkscape:cx="213.79581"
   inkscape:cy="405.13059"
   inkscape:window-width="1864"
   inkscape:window-height="1016"
   inkscape:window-x="56"
   inkscape:window-y="27"
   inkscape:window-maximized="1"
   inkscape:current-layer="Layer_1" />
<style
   type="text/css"
   id="style2">
	.st0{fill:#FFFFFF;}
	.st1{fill:none;stroke:#CECECE;stroke-width:6;stroke-linecap:round;stroke-linejoin:round;stroke-miterlimit:10;}
	.st2{fill:#00354C;}
	.st3{fill:none;stroke:#00354C;stroke-width:6;stroke-linecap:round;stroke-linejoin:round;stroke-miterlimit:10;}
	.st4{fill:#D1D1D1;}
	.st5{fill:#01D392;}
	.st6{fill:#F7BF46;}
	.st7{opacity:0.68;fill:none;stroke:#F7BF46;stroke-miterlimit:10;}
	.st8{fill:none;stroke:#00354C;stroke-width:3;stroke-linecap:round;stroke-linejoin:round;stroke-miterlimit:10;}
	.st9{fill:none;stroke:#00354C;stroke-width:4;stroke-linecap:round;stroke-linejoin:round;stroke-miterlimit:10;}
	.st10{fill:#F6F6F4;}
</style>
<rect
   id="XMLID_26_"
   class="st0"
   width="1000"
   height="1000"
   inkscape:export-filename="/home/ecarreras/Escriptori/rescat-dog.png"
   inkscape:export-xdpi="96"
   inkscape:export-ydpi="96" />
<path
   id="XMLID_37_"
   class="st1"
   d="m 455.7,501.5 139,114.2 c 6.9,5.7 16.9,5.7 23.8,0 v 0 c 9.1,-7.5 9.1,-21.5 0,-28.9 l -150,-123.2 c -7.4,-6.1 -18.1,-6.1 -25.6,0 L 293,586.7 c -9.1,7.5 -9.1,21.5 0,28.9 v 0 c 6.9,5.7 16.9,5.7 23.8,0 z"
   inkscape:export-filename="/home/ecarreras/Escriptori/rescat-dog.png"
   inkscape:export-xdpi="96"
   inkscape:export-ydpi="96" /><polygon
   id="XMLID_44_"
   class="st1"
   points="351.4,784.4 560.1,784.4 569.9,595.3 455.7,501.5 341.5,595.3 "
   inkscape:export-filename="/home/ecarreras/Escriptori/rescat-dog.png"
   inkscape:export-xdpi="96"
   inkscape:export-ydpi="96" /><path
   id="XMLID_36_"
   class="st1"
   d="m 455.7,623.2 v 0 c -40.7,0 -72.6,27.3 -71.4,60 l 3.8,101.2 h 135.2 l 3.8,-101.2 c 1.2,-32.7 -30.7,-60 -71.4,-60 z"
   inkscape:export-filename="/home/ecarreras/Escriptori/rescat-dog.png"
   inkscape:export-xdpi="96"
   inkscape:export-ydpi="96" /><path
   id="XMLID_41_"
   class="st1"
   d="m 435,590 c 1.9,4.4 7,6.4 11.4,4.6 2.8,-1.1 6,-1.8 9.3,-1.8 3.3,0 6.5,0.6 9.3,1.8 4.4,1.8 9.5,-0.2 11.4,-4.6 0.9,-2.1 1.4,-4.4 1.4,-6.7 0,-10.6 -9.9,-19.1 -22.2,-19.1 -12.3,0 -22.2,8.6 -22.2,19.1 0.2,2.4 0.6,4.6 1.6,6.7 z"
   inkscape:export-filename="/home/ecarreras/Escriptori/rescat-dog.png"
   inkscape:export-xdpi="96"
   inkscape:export-ydpi="96" /><ellipse
   id="XMLID_42_"
   transform="rotate(-38.128263)"
   class="st1"
   cx="-5.5360856"
   cy="701.95288"
   rx="7.7996974"
   ry="6.5997434"
   inkscape:export-filename="/home/ecarreras/Escriptori/rescat-dog.png"
   inkscape:export-xdpi="96"
   inkscape:export-ydpi="96" /><ellipse
   id="XMLID_34_"
   class="st1"
   cx="455.70001"
   cy="546.59998"
   rx="10.2"
   ry="6.9000001"
   inkscape:export-filename="/home/ecarreras/Escriptori/rescat-dog.png"
   inkscape:export-xdpi="96"
   inkscape:export-ydpi="96" /><ellipse
   id="XMLID_39_"
   transform="rotate(-51.871737)"
   class="st1"
   cx="-142.83704"
   cy="722.22809"
   rx="6.5997434"
   ry="7.7996974"
   inkscape:export-filename="/home/ecarreras/Escriptori/rescat-dog.png"
   inkscape:export-xdpi="96"
   inkscape:export-ydpi="96" />

<line
   id="XMLID_10_"
   class="st3"
   x1="188.5"
   y1="784.2"
   x2="200"
   y2="784.2"
   inkscape:export-filename="/home/ecarreras/Escriptori/rescat-dog.png"
   inkscape:export-xdpi="96"
   inkscape:export-ydpi="96" />
<path
   id="XMLID_72_"
   class="st4"
   d="M495.2,625.8c2.9-17.4,9.8-37.4,18-54.1c-11.4,18.6-21.7,45.1-25.4,67.5  c-5.7,34.1-3.8,65.4,4.9,85.3l5.2-18.8C491.1,685.8,490,657,495.2,625.8z"
   inkscape:export-filename="/home/ecarreras/Escriptori/rescat-dog.png"
   inkscape:export-xdpi="96"
   inkscape:export-ydpi="96" />
<g
   id="XMLID_51_"
   inkscape:export-filename="/home/ecarreras/Escriptori/rescat-dog.png"
   inkscape:export-xdpi="96"
   inkscape:export-ydpi="96">
	<path
   id="XMLID_43_"
   class="st5"
   d="M255.4,454.2c-28.6-2-29.6,31-24.6,53c2,12-11,19-16.9,28.2c-2.5,4-4.8,8.7-6,14.7   c-3.3,15.9,6.1,29.4,7.6,43.9c0.4,3.6,0.3,7.3-0.6,11.1c-1.1,4.1-3.1,8.1-5.1,12.1c-16,18-42,39-24,63c3.3,4.2,6.9,7.9,10.8,11.2   c31.2,26.8,78.2,24.8,114.2,7.8c13-7,26-17,29-32c2-16-5-31-15.7-41.6c-3.2-3.5-6.7-6.8-10.3-9.7c-2.6-4-4.2-7.8-5-11.5   c-1.9-9.2,1-17.8,3.8-26.5c1.4-4.3,2.7-8.7,3.4-13.2c3.8-22.6-18.2-36.6-30.2-52.6c-5-7-3-16-1-24c4-19-11-35-28.9-34" />
	<path
   id="XMLID_35_"
   class="st3"
   d="M259.9,548.9c-4.6,21.7-5.6,43-5,64.3c0.2,5.3,13.9,94,5.1,132.8c-0.2,5.6-0.2,8.9-0.2,8.9" />
	<line
   id="XMLID_45_"
   class="st3"
   x1="274.8"
   y1="632.8"
   x2="259.9"
   y2="654.3" />
	<path
   id="XMLID_32_"
   class="st6"
   d="M283.8,787.2h-46c-0.6,0-1.1-0.4-1.2-1l-11.8-49.8h72L285,786.3   C284.9,786.8,284.4,787.2,283.8,787.2z" />
	<line
   id="XMLID_47_"
   class="st7"
   x1="232"
   y1="764"
   x2="289.6"
   y2="764" />
	<line
   id="XMLID_48_"
   class="st7"
   x1="232.9"
   y1="767.6"
   x2="288.7"
   y2="767.6" />
</g>
<line
   id="XMLID_23_"
   class="st3"
   x1="503.4"
   y1="773"
   x2="503.4"
   y2="784"
   inkscape:export-filename="/home/ecarreras/Escriptori/rescat-dog.png"
   inkscape:export-xdpi="96"
   inkscape:export-ydpi="96" />
<ellipse
   id="XMLID_69_"
   class="st5"
   cx="190.3"
   cy="589.2"
   rx="10.7"
   ry="17.4"
   inkscape:export-filename="/home/ecarreras/Escriptori/rescat-dog.png"
   inkscape:export-xdpi="96"
   inkscape:export-ydpi="96" />
<rect
   id="XMLID_74_"
   x="789.4"
   y="670.2"
   transform="matrix(0.7071 0.7071 -0.7071 0.7071 712.1226 -364.7542)"
   class="st5"
   width="14"
   height="14"
   inkscape:export-filename="/home/ecarreras/Escriptori/rescat-dog.png"
   inkscape:export-xdpi="96"
   inkscape:export-ydpi="96" />
<rect
   id="XMLID_119_"
   x="725.1"
   y="383"
   transform="matrix(0.7071 0.7071 -0.7071 0.7071 487.6996 -402.4377)"
   class="st5"
   width="9"
   height="9"
   inkscape:export-filename="/home/ecarreras/Escriptori/rescat-dog.png"
   inkscape:export-xdpi="96"
   inkscape:export-ydpi="96" />
<g
   id="XMLID_104_"
   inkscape:export-filename="/home/ecarreras/Escriptori/rescat-dog.png"
   inkscape:export-xdpi="96"
   inkscape:export-ydpi="96">
	<g
   id="XMLID_75_">
		<line
   id="XMLID_76_"
   class="st8"
   x1="227.1"
   y1="256.3"
   x2="227.1"
   y2="270.6" />
		<line
   id="XMLID_78_"
   class="st8"
   x1="227.1"
   y1="288.7"
   x2="227.1"
   y2="303" />
	</g>
	<g
   id="XMLID_77_">
		<line
   id="XMLID_80_"
   class="st8"
   x1="206.8"
   y1="268"
   x2="219.2"
   y2="275.1" />
		<line
   id="XMLID_79_"
   class="st8"
   x1="235"
   y1="284.2"
   x2="247.4"
   y2="291.3" />
	</g>
	<g
   id="XMLID_81_">
		<line
   id="XMLID_83_"
   class="st8"
   x1="206.8"
   y1="291.3"
   x2="219.2"
   y2="284.2" />
		<line
   id="XMLID_82_"
   class="st8"
   x1="235"
   y1="275.1"
   x2="247.4"
   y2="268" />
	</g>
</g>
<g
   id="XMLID_91_"
   inkscape:export-filename="/home/ecarreras/Escriptori/rescat-dog.png"
   inkscape:export-xdpi="96"
   inkscape:export-ydpi="96">
	<line
   id="XMLID_93_"
   class="st8"
   x1="853.1"
   y1="317.4"
   x2="853.1"
   y2="327.3" />
	<line
   id="XMLID_92_"
   class="st8"
   x1="853.1"
   y1="339.9"
   x2="853.1"
   y2="349.9" />
</g>
<g
   id="XMLID_88_"
   inkscape:export-filename="/home/ecarreras/Escriptori/rescat-dog.png"
   inkscape:export-xdpi="96"
   inkscape:export-ydpi="96">
	<line
   id="XMLID_90_"
   class="st8"
   x1="839.1"
   y1="325.5"
   x2="847.7"
   y2="330.5" />
	<line
   id="XMLID_89_"
   class="st8"
   x1="858.6"
   y1="336.8"
   x2="867.2"
   y2="341.7" />
</g>
<g
   id="XMLID_85_"
   inkscape:export-filename="/home/ecarreras/Escriptori/rescat-dog.png"
   inkscape:export-xdpi="96"
   inkscape:export-ydpi="96">
	<line
   id="XMLID_87_"
   class="st8"
   x1="839.1"
   y1="341.7"
   x2="847.7"
   y2="336.8" />
	<line
   id="XMLID_86_"
   class="st8"
   x1="858.6"
   y1="330.5"
   x2="867.2"
   y2="325.5" />
</g>
<circle
   id="XMLID_84_"
   class="st6"
   cx="776.5"
   cy="464.8"
   r="15.1"
   inkscape:export-filename="/home/ecarreras/Escriptori/rescat-dog.png"
   inkscape:export-xdpi="96"
   inkscape:export-ydpi="96" />
<g
   id="XMLID_103_"
   inkscape:export-filename="/home/ecarreras/Escriptori/rescat-dog.png"
   inkscape:export-xdpi="96"
   inkscape:export-ydpi="96">
	<g
   id="XMLID_100_">
		<line
   id="XMLID_102_"
   class="st8"
   x1="776.5"
   y1="442.8"
   x2="776.5"
   y2="454.9" />
		<line
   id="XMLID_101_"
   class="st8"
   x1="776.5"
   y1="474.6"
   x2="776.5"
   y2="486.7" />
	</g>
	<g
   id="XMLID_97_">
		<line
   id="XMLID_99_"
   class="st8"
   x1="757.5"
   y1="453.8"
   x2="768"
   y2="459.8" />
		<line
   id="XMLID_98_"
   class="st8"
   x1="785.1"
   y1="469.7"
   x2="795.6"
   y2="475.7" />
	</g>
	<g
   id="XMLID_94_">
		<line
   id="XMLID_96_"
   class="st8"
   x1="757.5"
   y1="476.4"
   x2="768"
   y2="469.7" />
		<line
   id="XMLID_95_"
   class="st8"
   x1="785.1"
   y1="459.8"
   x2="795.6"
   y2="453.8" />
	</g>
</g>
<line
   id="XMLID_106_"
   class="st9"
   x1="550.5"
   y1="140.9"
   x2="550.5"
   y2="155.6"
   inkscape:export-filename="/home/ecarreras/Escriptori/rescat-dog.png"
   inkscape:export-xdpi="96"
   inkscape:export-ydpi="96" />
<line
   id="XMLID_105_"
   class="st9"
   x1="557.8"
   y1="148.2"
   x2="543.2"
   y2="148.2"
   inkscape:export-filename="/home/ecarreras/Escriptori/rescat-dog.png"
   inkscape:export-xdpi="96"
   inkscape:export-ydpi="96" />
<line
   id="XMLID_110_"
   class="st9"
   x1="889.7"
   y1="655.1"
   x2="889.7"
   y2="669.8"
   inkscape:export-filename="/home/ecarreras/Escriptori/rescat-dog.png"
   inkscape:export-xdpi="96"
   inkscape:export-ydpi="96" />
<line
   id="XMLID_109_"
   class="st9"
   x1="897"
   y1="662.5"
   x2="882.3"
   y2="662.5"
   inkscape:export-filename="/home/ecarreras/Escriptori/rescat-dog.png"
   inkscape:export-xdpi="96"
   inkscape:export-ydpi="96" />
<line
   id="XMLID_107_"
   class="st9"
   x1="375.2"
   y1="396"
   x2="375.2"
   y2="405"
   inkscape:export-filename="/home/ecarreras/Escriptori/rescat-dog.png"
   inkscape:export-xdpi="96"
   inkscape:export-ydpi="96" />
<line
   id="XMLID_63_"
   class="st9"
   x1="379.7"
   y1="400.5"
   x2="370.7"
   y2="400.5"
   inkscape:export-filename="/home/ecarreras/Escriptori/rescat-dog.png"
   inkscape:export-xdpi="96"
   inkscape:export-ydpi="96" />
<rect
   id="XMLID_108_"
   x="328.3"
   y="468.4"
   transform="matrix(0.7071 0.7071 -0.7071 0.7071 432.3811 -97.0651)"
   class="st6"
   width="10"
   height="10"
   inkscape:export-filename="/home/ecarreras/Escriptori/rescat-dog.png"
   inkscape:export-xdpi="96"
   inkscape:export-ydpi="96" />
<line
   id="XMLID_111_"
   class="st9"
   x1="112.1"
   y1="431.2"
   x2="138.5"
   y2="431.2"
   inkscape:export-filename="/home/ecarreras/Escriptori/rescat-dog.png"
   inkscape:export-xdpi="96"
   inkscape:export-ydpi="96" />
<line
   id="XMLID_22_"
   class="st9"
   x1="147.5"
   y1="431.2"
   x2="157.6"
   y2="431.2"
   inkscape:export-filename="/home/ecarreras/Escriptori/rescat-dog.png"
   inkscape:export-xdpi="96"
   inkscape:export-ydpi="96" />
<line
   id="XMLID_113_"
   class="st9"
   x1="126.8"
   y1="444"
   x2="156"
   y2="444"
   inkscape:export-filename="/home/ecarreras/Escriptori/rescat-dog.png"
   inkscape:export-xdpi="96"
   inkscape:export-ydpi="96" />
<line
   id="XMLID_117_"
   class="st9"
   x1="684.2"
   y1="555.1"
   x2="710.5"
   y2="555.1"
   inkscape:export-filename="/home/ecarreras/Escriptori/rescat-dog.png"
   inkscape:export-xdpi="96"
   inkscape:export-ydpi="96" />
<line
   id="XMLID_116_"
   class="st9"
   x1="719.5"
   y1="555.1"
   x2="729.6"
   y2="555.1"
   inkscape:export-filename="/home/ecarreras/Escriptori/rescat-dog.png"
   inkscape:export-xdpi="96"
   inkscape:export-ydpi="96" />
<line
   id="XMLID_115_"
   class="st9"
   x1="698.8"
   y1="565.8"
   x2="728.1"
   y2="565.8"
   inkscape:export-filename="/home/ecarreras/Escriptori/rescat-dog.png"
   inkscape:export-xdpi="96"
   inkscape:export-ydpi="96" />
<line
   id="XMLID_66_"
   class="st3"
   x1="765"
   y1="784.2"
   x2="806.3"
   y2="784.2"
   inkscape:export-filename="/home/ecarreras/Escriptori/rescat-dog.png"
   inkscape:export-xdpi="96"
   inkscape:export-ydpi="96" />
<line
   id="XMLID_30_"
   class="st3"
   x1="221"
   y1="784.2"
   x2="303.7"
   y2="784.2"
   inkscape:export-filename="/home/ecarreras/Escriptori/rescat-dog.png"
   inkscape:export-xdpi="96"
   inkscape:export-ydpi="96" />







<path
   id="XMLID_31_"
   class="st0"
   d="m 717,640.2 c 0.2,2.7 0.3,5.4 0.3,8.1 0,55.9 -45,101.3 -100.5,101.3 -46.6,0 -85.8,-32 -97.2,-75.4 4.1,52.1 47.4,93.2 100.2,93.2 55.5,0 100.5,-45.3 100.5,-101.3 0.1,-9 -1.1,-17.6 -3.3,-25.9 z"
   inkscape:export-filename="/home/ecarreras/Escriptori/rescat-dog.png"
   inkscape:export-xdpi="96"
   inkscape:export-ydpi="96" /><path
   id="XMLID_17_"
   class="st3"
   d="m 717,640.2 c 0.2,2.7 0.3,5.4 0.3,8.1 0,55.9 -45,101.3 -100.5,101.3 -46.6,0 -85.8,-32 -97.2,-75.4 4.1,52.1 47.4,93.2 100.2,93.2 55.5,0 100.5,-45.3 100.5,-101.3 0.1,-9 -1.1,-17.6 -3.3,-25.9 z"
   inkscape:export-filename="/home/ecarreras/Escriptori/rescat-dog.png"
   inkscape:export-xdpi="96"
   inkscape:export-ydpi="96" /><path
   id="XMLID_28_"
   class="st0"
   d="m 541.3,549.2 c -17,-7.6 -46.6,48.4 -53.5,90 -5.7,34.1 -3.8,65.4 4.9,85.3 z"
   inkscape:export-filename="/home/ecarreras/Escriptori/rescat-dog.png"
   inkscape:export-xdpi="96"
   inkscape:export-ydpi="96" /><path
   id="XMLID_1_"
   class="st3"
   d="m 541.3,549.2 c -17,-7.6 -46.6,48.4 -53.5,90 -5.7,34.1 -3.8,65.4 4.9,85.3 z"
   inkscape:export-filename="/home/ecarreras/Escriptori/rescat-dog.png"
   inkscape:export-xdpi="96"
   inkscape:export-ydpi="96" /><path
   id="XMLID_68_"
   class="st0"
   d="m 593.7,549.2 c 17,-7.6 46.6,48.4 53.5,90 5.7,34.1 3.8,65.4 -4.9,85.3 z"
   inkscape:export-filename="/home/ecarreras/Escriptori/rescat-dog.png"
   inkscape:export-xdpi="96"
   inkscape:export-ydpi="96" /><path
   id="XMLID_56_"
   class="st4"
   d="m 639.9,625.8 c -2.9,-17.4 -9.8,-37.4 -18,-54.1 11.4,18.6 21.7,45.1 25.4,67.5 5.7,34.1 3.8,65.4 -4.9,85.3 l -5.2,-18.8 c 6.8,-19.9 7.8,-48.7 2.7,-79.9 z"
   inkscape:export-filename="/home/ecarreras/Escriptori/rescat-dog.png"
   inkscape:export-xdpi="96"
   inkscape:export-ydpi="96" /><path
   id="XMLID_54_"
   class="st3"
   d="m 593.7,549.2 c 17,-7.6 46.6,48.4 53.5,90 5.7,34.1 3.8,65.4 -4.9,85.3 z"
   inkscape:export-filename="/home/ecarreras/Escriptori/rescat-dog.png"
   inkscape:export-xdpi="96"
   inkscape:export-ydpi="96" /><path
   id="XMLID_18_"
   class="st0"
   d="M 645.3,732 C 644.2,715.4 601,535.2 589.3,526.2 h -21.1 -21.7 c -11.7,9 -55,189.1 -56,205.8 -1.3,20.7 -8.1,52.2 31.2,52.2 h 46.5 46 c 39.2,0 32.4,-31.5 31.1,-52.2 z"
   inkscape:export-filename="/home/ecarreras/Escriptori/rescat-dog.png"
   inkscape:export-xdpi="96"
   inkscape:export-ydpi="96" /><path
   id="XMLID_20_"
   class="st4"
   d="m 495.2,706.5 c 0,0 -3.1,26.4 11.7,36.1 11.6,7.7 21.8,10.8 40.9,14.3 10.3,1.9 21.5,2.7 21.5,2.7 l 1.2,23.7 -81.4,0.6 c 0,0 -1.4,-33.3 0.6,-43.3 2,-9.9 3,-26.5 5.5,-34.1 z"
   inkscape:export-filename="/home/ecarreras/Escriptori/rescat-dog.png"
   inkscape:export-xdpi="96"
   inkscape:export-ydpi="96" /><path
   id="XMLID_5_"
   class="st4"
   d="m 641.4,706.5 c 0,0 3.1,26.4 -11.7,36.1 -11.6,7.7 -21.8,10.8 -40.9,14.3 -10.3,1.9 -21.5,2.7 -21.5,2.7 l -1.2,23.7 81.4,0.6 c 0,0 1.4,-33.3 -0.6,-43.3 -2,-9.9 -3,-26.5 -5.5,-34.1 z"
   inkscape:export-filename="/home/ecarreras/Escriptori/rescat-dog.png"
   inkscape:export-xdpi="96"
   inkscape:export-ydpi="96" /><path
   id="XMLID_64_"
   class="st6"
   d="m 603.6,562.5 c -2.5,-0.7 -4.9,-1.1 -7,-1.1 -12.2,0 -21.9,6.5 -21.9,21.5 0,15.1 21.9,33 34.1,33 3.3,0 6.4,-0.9 9.2,-2.5 -4.9,-18.4 -9.9,-36.2 -14.4,-50.9 z"
   inkscape:export-filename="/home/ecarreras/Escriptori/rescat-dog.png"
   inkscape:export-xdpi="96"
   inkscape:export-ydpi="96" /><path
   id="XMLID_58_"
   class="st6"
   d="m 511.1,692.1 c 13.5,0 24.5,-13.3 24.5,-29.7 0,-15.7 -10.1,-28.6 -22.9,-29.6 -5,19.6 -9.7,39 -13.5,55.5 3.6,2.4 7.6,3.8 11.9,3.8 z"
   inkscape:export-filename="/home/ecarreras/Escriptori/rescat-dog.png"
   inkscape:export-xdpi="96"
   inkscape:export-ydpi="96" /><path
   id="XMLID_46_"
   class="st4"
   d="m 543.4,530.5 c 0,0 7.1,5.7 23.4,5.7 13.2,0 24.8,-5.7 24.8,-5.7 l -1,-3.9 h -46.5 z"
   inkscape:export-filename="/home/ecarreras/Escriptori/rescat-dog.png"
   inkscape:export-xdpi="96"
   inkscape:export-ydpi="96" /><path
   id="XMLID_4_"
   class="st3"
   d="M 645.3,732 C 644.2,715.4 601,535.2 589.3,526.2 h -21.1 -21.7 c -11.7,9 -55,189.1 -56,205.8 -1.3,20.7 -8.1,52.2 31.2,52.2 h 46.5 46 c 39.2,0 32.4,-31.5 31.1,-52.2 z"
   inkscape:export-filename="/home/ecarreras/Escriptori/rescat-dog.png"
   inkscape:export-xdpi="96"
   inkscape:export-ydpi="96" /><path
   id="XMLID_9_"
   class="st0"
   d="m 643,454.2 c -1.9,-19.5 -11.5,-68.8 -22.3,-103.3 -17.2,-55.1 -37.4,-69.5 -49.1,-71 -1.2,-0.2 -3.8,-0.2 -3.8,-0.2 0,0 -2.5,0 -3.8,0.2 -11.7,1.4 -31.8,15.7 -49.1,70.9 -10.8,34.5 -20.3,83.9 -22.3,103.5 -4.3,44 16.8,68.3 44.2,71.8 7.8,1 23.2,1 31,1 7.7,0 23.1,0 31,-1 27.3,-3.6 48.5,-27.9 44.2,-71.9 z"
   inkscape:export-filename="/home/ecarreras/Escriptori/rescat-dog.png"
   inkscape:export-xdpi="96"
   inkscape:export-ydpi="96" /><ellipse
   id="XMLID_49_"
   class="st4"
   cx="567.79999"
   cy="479.60001"
   rx="18.9"
   ry="14.9"
   inkscape:export-filename="/home/ecarreras/Escriptori/rescat-dog.png"
   inkscape:export-xdpi="96"
   inkscape:export-ydpi="96" /><path
   id="XMLID_55_"
   class="st4"
   d="m 550.5,285.5 c 0,0 -9,33.9 -27.8,43.7 4.8,-10.8 11.3,-23.7 11.3,-23.7 0,0 11.2,-18.5 16.5,-20 z"
   inkscape:export-filename="/home/ecarreras/Escriptori/rescat-dog.png"
   inkscape:export-xdpi="96"
   inkscape:export-ydpi="96" /><path
   id="XMLID_53_"
   class="st4"
   d="m 571.6,280 c 0,0 24.4,42 44.7,58.1 0,0 -4.6,-29.8 -9.1,-38.8 -4.5,-9 -26.5,-22.1 -35.6,-19.3 z"
   inkscape:export-filename="/home/ecarreras/Escriptori/rescat-dog.png"
   inkscape:export-xdpi="96"
   inkscape:export-ydpi="96" /><path
   id="XMLID_15_"
   class="st6"
   d="m 519.8,441.3 c 39.3,-16.9 62.8,-50.2 52.4,-74.3 -7.3,-16.9 -29.3,-24.8 -55.3,-22.2 -0.6,1.9 -1.3,3.9 -1.9,6 -10,32 -18.9,76.7 -21.7,98.6 8.6,-1.6 17.6,-4.2 26.5,-8.1 z"
   inkscape:export-filename="/home/ecarreras/Escriptori/rescat-dog.png"
   inkscape:export-xdpi="96"
   inkscape:export-ydpi="96" /><path
   id="XMLID_14_"
   class="st3"
   d="m 624.1,487.1 c -11.2,16.3 -35.7,27.3 -61.8,27.3 -24.2,0 -38.7,-14.2 -47.2,-31.9"
   inkscape:export-filename="/home/ecarreras/Escriptori/rescat-dog.png"
   inkscape:export-xdpi="96"
   inkscape:export-ydpi="96" /><ellipse
   id="XMLID_7_"
   class="st2"
   cx="567.79999"
   cy="477"
   rx="23.700001"
   ry="12.2"
   inkscape:export-filename="/home/ecarreras/Escriptori/rescat-dog.png"
   inkscape:export-xdpi="96"
   inkscape:export-ydpi="96" /><path
   id="XMLID_2_"
   class="st0"
   d="m 697.9,777.9 c -15.2,-14.3 -44.4,-21.4 -72.9,-19.2 -24.4,1.8 -42.5,10.1 -49.6,21.1 -1.2,1.9 0.3,4.4 2.6,4.4 h 115.5 c 4.5,0 7.2,-3.7 4.4,-6.3 z"
   inkscape:export-filename="/home/ecarreras/Escriptori/rescat-dog.png"
   inkscape:export-xdpi="96"
   inkscape:export-ydpi="96" /><path
   id="XMLID_50_"
   class="st4"
   d="m 697.1,777.7 c -0.3,0.1 -0.7,0.2 -1.1,0.2 H 580.5 c -1.4,0 -2.6,-0.3 -3.5,-0.9 -0.3,0.3 -0.7,0.6 -1,0.9 -2.8,2.6 -0.1,6.3 4.5,6.3 H 696 c 2.3,0 3.8,-2.6 2.6,-4.4 -0.5,-0.8 -1,-1.5 -1.5,-2.1 z"
   inkscape:export-filename="/home/ecarreras/Escriptori/rescat-dog.png"
   inkscape:export-xdpi="96"
   inkscape:export-ydpi="96" /><path
   id="XMLID_19_"
   class="st3"
   d="m 697.9,777.9 c -15.2,-14.3 -44.4,-21.4 -72.9,-19.2 -24.4,1.8 -42.5,10.1 -49.6,21.1 -1.2,1.9 0.3,4.4 2.6,4.4 h 115.5 c 4.5,0 7.2,-3.7 4.4,-6.3 z"
   inkscape:export-filename="/home/ecarreras/Escriptori/rescat-dog.png"
   inkscape:export-xdpi="96"
   inkscape:export-ydpi="96" /><line
   id="XMLID_8_"
   class="st3"
   x1="635.40002"
   y1="773"
   x2="635.40002"
   y2="784"
   inkscape:export-filename="/home/ecarreras/Escriptori/rescat-dog.png"
   inkscape:export-xdpi="96"
   inkscape:export-ydpi="96" /><path
   id="XMLID_25_"
   class="st0"
   d="m 441,777.9 c 15.2,-14.3 44.4,-21.4 72.9,-19.2 24.4,1.8 42.5,10.1 49.6,21.1 1.2,1.9 -0.3,4.4 -2.6,4.4 H 445.4 c -4.5,0 -7.2,-3.7 -4.4,-6.3 z"
   inkscape:export-filename="/home/ecarreras/Escriptori/rescat-dog.png"
   inkscape:export-xdpi="96"
   inkscape:export-ydpi="96" /><path
   id="XMLID_67_"
   class="st4"
   d="m 562.1,777.7 c -0.3,0.1 -0.7,0.2 -1.1,0.2 H 445.5 c -1.4,0 -2.6,-0.3 -3.5,-0.9 -0.3,0.3 -0.7,0.6 -1,0.9 -2.8,2.6 -0.1,6.3 4.5,6.3 H 561 c 2.3,0 3.8,-2.6 2.6,-4.4 -0.5,-0.8 -1,-1.5 -1.5,-2.1 z"
   inkscape:export-filename="/home/ecarreras/Escriptori/rescat-dog.png"
   inkscape:export-xdpi="96"
   inkscape:export-ydpi="96" /><path
   id="XMLID_24_"
   class="st3"
   d="m 441,777.9 c 15.2,-14.3 44.4,-21.4 72.9,-19.2 24.4,1.8 42.5,10.1 49.6,21.1 1.2,1.9 -0.3,4.4 -2.6,4.4 H 445.4 c -4.5,0 -7.2,-3.7 -4.4,-6.3 z"
   inkscape:export-filename="/home/ecarreras/Escriptori/rescat-dog.png"
   inkscape:export-xdpi="96"
   inkscape:export-ydpi="96" /><path
   id="XMLID_13_"
   class="st3"
   d="m 643,454.2 c -1.9,-19.5 -11.5,-68.8 -22.3,-103.3 -17.2,-55.1 -37.4,-69.5 -49.1,-71 -1.2,-0.2 -3.8,-0.2 -3.8,-0.2 0,0 -2.5,0 -3.8,0.2 -11.7,1.4 -31.8,15.7 -49.1,70.9 -10.8,34.5 -20.3,83.9 -22.3,103.5 -4.3,44 16.8,68.3 44.2,71.8 7.8,1 23.2,1 31,1 7.7,0 23.1,0 31,-1 27.3,-3.6 48.5,-27.9 44.2,-71.9 z"
   inkscape:export-filename="/home/ecarreras/Escriptori/rescat-dog.png"
   inkscape:export-xdpi="96"
   inkscape:export-ydpi="96" /><path
   id="XMLID_29_"
   class="st0"
   d="m 569.8,279.5 c 0,0 34.9,-7.4 44.5,-2.9 9.9,4.6 27.8,39.7 20.4,53.4 -11.3,21 -44.5,-55 -64.9,-50.5 z"
   inkscape:export-filename="/home/ecarreras/Escriptori/rescat-dog.png"
   inkscape:export-xdpi="96"
   inkscape:export-ydpi="96" /><path
   id="XMLID_11_"
   class="st3"
   d="m 569.8,279.5 c 0,0 34.9,-7.4 44.5,-2.9 9.9,4.6 27.8,39.7 20.4,53.4 -11.3,21 -44.5,-55 -64.9,-50.5 z"
   inkscape:export-filename="/home/ecarreras/Escriptori/rescat-dog.png"
   inkscape:export-xdpi="96"
   inkscape:export-ydpi="96" /><path
   id="XMLID_27_"
   class="st0"
   d="m 504.3,285.8 48.3,-1.4 c 0,0 -44.8,48.2 -65.5,58.6 -20.7,10.4 0.5,-57.3 17.2,-57.2 z"
   inkscape:export-filename="/home/ecarreras/Escriptori/rescat-dog.png"
   inkscape:export-xdpi="96"
   inkscape:export-ydpi="96" /><path
   id="XMLID_12_"
   class="st3"
   d="m 504.3,285.8 48.3,-1.4 c 0,0 -44.8,48.2 -65.5,58.6 -20.7,10.4 0.5,-57.3 17.2,-57.2 z"
   inkscape:export-filename="/home/ecarreras/Escriptori/rescat-dog.png"
   inkscape:export-xdpi="96"
   inkscape:export-ydpi="96" /><ellipse
   id="XMLID_3_"
   class="st2"
   cx="548.70001"
   cy="387.5"
   rx="5"
   ry="6.5"
   inkscape:export-filename="/home/ecarreras/Escriptori/rescat-dog.png"
   inkscape:export-xdpi="96"
   inkscape:export-ydpi="96" /><ellipse
   id="XMLID_6_"
   class="st2"
   cx="590.90002"
   cy="387.5"
   rx="5"
   ry="6.5"
   inkscape:export-filename="/home/ecarreras/Escriptori/rescat-dog.png"
   inkscape:export-xdpi="96"
   inkscape:export-ydpi="96" /><line
   id="XMLID_57_"
   class="st3"
   x1="392.29999"
   y1="784.20001"
   x2="739"
   y2="784.20001"
   inkscape:export-filename="/home/ecarreras/Escriptori/rescat-dog.png"
   inkscape:export-xdpi="96"
   inkscape:export-ydpi="96" />
<path
   id="XMLID_21_"
   class="st10"
   d="m 804.8,188 c 1.5,-1.8 2.4,-4.3 2.1,-7 -0.5,-4.2 -6.2,-6.3 -8.6,-6.8 -3.2,-0.6 -9.9,2.3 -9.9,7.8 0,0 0,0 0,0 0,1.3 -1,2.4 -2.3,2.4 h -45.5 c -1.3,0 -2.3,-1.1 -2.3,-2.3 0,-1.2 -0.2,-2.5 -0.8,-3.8 -1.3,-3 -4.6,-3.4 -7.5,-3.7 -5,-0.6 -10.3,1.9 -10.3,7.4 0,2.3 0.8,4.3 2.2,5.9 0.9,1.1 0.9,2.7 0,3.8 -1.5,1.8 -2.4,4.3 -2.1,7 0.5,4.2 4.5,6 8.3,6.4 5,0.6 10.2,-2 10.2,-7.4 0,0 0,0 0,0 0,-1.3 1,-2.4 2.3,-2.4 h 45.5 c 1.3,0 2.3,1.1 2.3,2.3 0,1.2 0.2,2.5 0.8,3.8 1.3,3 6,3.7 7.8,4.1 3.2,0.6 9.9,-2.3 9.9,-7.8 0,-2.3 -0.8,-4.3 -2.2,-5.9 -0.8,-1.1 -0.8,-2.7 0.1,-3.8 z"
   style="display:none" />
<g
   fill-rule="evenodd"
   id="g25971"
   transform="matrix(0.23401315,0,0,0.23401315,634.04632,91.512176)"
   style="fill:none;fill-opacity:1;stroke:#00354c;stroke-opacity:1;stroke-width:21.36632065;stroke-miterlimit:4;stroke-dasharray:none"
   inkscape:export-filename="/home/ecarreras/Escriptori/rescat-dog.png"
   inkscape:export-xdpi="96"
   inkscape:export-ydpi="96"><path
     d="m 675.05,118.63 h 36.48 c 96.625,12.191 157.01,52.777 184.51,119.18 161.09,-8.8555 278.21,116.71 206.83,239.95 23.734,25.895 43.535,54.863 50.688,93.742 v 33.383 c -21.312,98.953 -113.02,165.82 -263.57,147.82 -38.734,50.809 -107.66,101.69 -214.92,95.352 -55.441,-3.3359 -94.008,-22.656 -127.78,-46.129 -35.566,19.512 -74.09,34.824 -129.74,34.992 -128.76,0.28906 -214.89,-74.879 -216.98,-177.98 C 117.791,634.819 61.728,589.795 46.458,512.76 v -33.383 c 16.848,-76.344 69.863,-124.3 158.14,-144.62 -5.3047,-128.79 171.27,-209.26 316.32,-152.52 34.539,-28.055 83.402,-58.656 154.13,-63.598 z"
     id="path25963"
     style="fill:none;fill-opacity:1;stroke:#00354c;stroke-opacity:1;stroke-width:21.36632065;stroke-miterlimit:4;stroke-dasharray:none" /><path
     d="m 292.8,896.04 c 0,24.613 -19.953,44.57 -44.57,44.57 -24.613,0 -44.566,-19.957 -44.566,-44.57 0,-24.613 19.953,-44.566 44.566,-44.566 24.617,0 44.57,19.953 44.57,44.566"
     id="path25965"
     style="fill:none;fill-opacity:1;stroke:#00354c;stroke-opacity:1;stroke-width:21.36632065;stroke-miterlimit:4;stroke-dasharray:none" /><path
     d="m 193.89,986.62 c 0,17.496 -14.184,31.68 -31.68,31.68 -17.496,0 -31.68,-14.184 -31.68,-31.68 0,-17.496 14.184,-31.68 31.68,-31.68 17.496,0 31.68,14.184 31.68,31.68"
     id="path25967"
     style="fill:none;fill-opacity:1;stroke:#00354c;stroke-opacity:1;stroke-width:21.36632065;stroke-miterlimit:4;stroke-dasharray:none" /><path
     d="m 111.14,1061.5 c 0,12.578 -10.199,22.777 -22.777,22.777 -12.578,0 -22.773,-10.199 -22.773,-22.777 0,-12.578 10.195,-22.773 22.773,-22.773 12.578,0 22.777,10.195 22.777,22.773"
     id="path25969"
     style="fill:none;fill-opacity:1;stroke:#00354c;stroke-opacity:1;stroke-width:21.36632065;stroke-miterlimit:4;stroke-dasharray:none" /></g><path
   d="m 749.65449,164.67437 c -4.47804,-0.0327 -8.97524,1.06657 -12.95117,3.69401 -27.61511,18.71284 -3.81474,61.89772 37.84172,91.22738 41.65597,-29.32717 65.45596,-72.51206 37.84164,-91.22738 -3.97534,-2.62711 -8.47307,-3.72674 -12.95116,-3.69401 -11.44299,0.0825 -22.75839,7.54828 -24.8938,15.74872 -2.13216,-8.20053 -13.44671,-15.66586 -24.89387,-15.74872 m 1.05982,8.30567 c 2.63389,-0.0282 5.18421,0.38876 7.12452,2.55593 l -5.05221,4.5201 c 0.28029,0.31301 -0.56258,-0.31301 -2.00017,-0.29845 -1.43627,0.0158 -3.30398,0.44637 -4.95736,1.38867 -3.30623,1.88264 -6.16062,5.32225 -4.97421,13.28676 l -6.70536,0.99987 c -1.50385,-10.09393 2.88383,-17.07458 8.32469,-20.17626 2.721,-1.54918 5.60483,-2.24874 8.23871,-2.28271"
   fill-rule="evenodd"
   id="path1326"
   style="fill:#cc0000;fill-opacity:1;stroke-width:0.082866"
   inkscape:export-filename="/home/ecarreras/Escriptori/rescat-dog.png"
   inkscape:export-xdpi="96"
   inkscape:export-ydpi="96" /></svg>
